#N canvas 205 634 637 472 10;
#X obj 19 155 makenote 127 100;
#X obj 18 254 noteout;
#X obj 295 64 notein;
#X floatatom 283 123 5 0 0 0 - - -, f 5;
#X floatatom 325 125 5 0 0 0 - - -, f 5;
#X floatatom 240 126 5 0 0 0 - - -, f 5;
#X floatatom 26 110 5 0 0 0 - - -, f 5;
#X obj 25 52 bng 15 250 50 0 empty empty empty 17 7 0 10 -262144 -1
-1;
#X floatatom 19 201 5 0 0 0 - - -, f 5;
#X floatatom 113 210 5 0 0 0 - - -, f 5;
#X connect 0 0 8 0;
#X connect 0 1 1 1;
#X connect 2 0 5 0;
#X connect 2 1 3 0;
#X connect 2 2 4 0;
#X connect 6 0 0 0;
#X connect 7 0 6 0;
#X connect 8 0 1 0;
#X connect 9 0 1 2;
#X coords 0 472 1 471 85 60 0;
