{
	"patcher" : 	{
		"fileversion" : 1,
		"appversion" : 		{
			"major" : 7,
			"minor" : 1,
			"revision" : 0,
			"architecture" : "x64",
			"modernui" : 1
		}
,
		"rect" : [ 34.0, 79.0, 1372.0, 783.0 ],
		"bglocked" : 0,
		"openinpresentation" : 0,
		"default_fontsize" : 12.0,
		"default_fontface" : 0,
		"default_fontname" : "Arial",
		"gridonopen" : 1,
		"gridsize" : [ 15.0, 15.0 ],
		"gridsnaponopen" : 1,
		"objectsnaponopen" : 1,
		"statusbarvisible" : 2,
		"toolbarvisible" : 1,
		"lefttoolbarpinned" : 0,
		"toptoolbarpinned" : 0,
		"righttoolbarpinned" : 0,
		"bottomtoolbarpinned" : 0,
		"toolbars_unpinned_last_save" : 0,
		"tallnewobj" : 0,
		"boxanimatetime" : 200,
		"enablehscroll" : 1,
		"enablevscroll" : 1,
		"devicewidth" : 0.0,
		"description" : "",
		"digest" : "",
		"tags" : "",
		"style" : "",
		"subpatcher_template" : "",
		"boxes" : [ 			{
				"box" : 				{
					"fontsize" : 21.538962,
					"id" : "obj-26",
					"maxclass" : "message",
					"numinlets" : 2,
					"numoutlets" : 1,
					"outlettype" : [ "" ],
					"patching_rect" : [ 826.0, 492.779663, 29.5, 33.0 ],
					"presentation_rect" : [ 826.0, 475.779663, 0.0, 0.0 ],
					"style" : "",
					"text" : "1"
				}

			}
, 			{
				"box" : 				{
					"fontsize" : 21.538962,
					"id" : "obj-25",
					"maxclass" : "message",
					"numinlets" : 2,
					"numoutlets" : 1,
					"outlettype" : [ "" ],
					"patching_rect" : [ 772.0, 492.779663, 43.5, 33.0 ],
					"style" : "",
					"text" : "0"
				}

			}
, 			{
				"box" : 				{
					"fontsize" : 46.097158,
					"id" : "obj-23",
					"maxclass" : "newobj",
					"numinlets" : 5,
					"numoutlets" : 4,
					"outlettype" : [ "signal", "signal", "", "" ],
					"patching_rect" : [ 772.0, 577.098633, 358.0, 60.0 ],
					"style" : "",
					"text" : "adsr~ 50 50 1 50"
				}

			}
, 			{
				"box" : 				{
					"fontsize" : 46.097158,
					"id" : "obj-22",
					"maxclass" : "newobj",
					"numinlets" : 2,
					"numoutlets" : 1,
					"outlettype" : [ "bang" ],
					"patching_rect" : [ 772.0, 403.098602, 210.0, 60.0 ],
					"style" : "",
					"text" : "delay 800"
				}

			}
, 			{
				"box" : 				{
					"fontsize" : 48.312877,
					"id" : "obj-21",
					"maxclass" : "newobj",
					"numinlets" : 2,
					"numoutlets" : 1,
					"outlettype" : [ "signal" ],
					"patching_rect" : [ 357.5, 553.86438, 98.0, 62.0 ],
					"style" : "",
					"text" : "*~ 1"
				}

			}
, 			{
				"box" : 				{
					"fontsize" : 48.312877,
					"id" : "obj-20",
					"maxclass" : "newobj",
					"numinlets" : 2,
					"numoutlets" : 1,
					"outlettype" : [ "signal" ],
					"patching_rect" : [ 229.0, 548.86438, 98.0, 62.0 ],
					"style" : "",
					"text" : "*~ 1"
				}

			}
, 			{
				"box" : 				{
					"fontsize" : 46.097158,
					"id" : "obj-17",
					"maxclass" : "newobj",
					"numinlets" : 1,
					"numoutlets" : 1,
					"outlettype" : [ "" ],
					"patching_rect" : [ 954.0, 270.098602, 377.0, 60.0 ],
					"style" : "",
					"text" : "expr random (1\\,8)"
				}

			}
, 			{
				"box" : 				{
					"id" : "obj-16",
					"maxclass" : "toggle",
					"numinlets" : 1,
					"numoutlets" : 1,
					"outlettype" : [ "int" ],
					"parameter_enable" : 0,
					"patching_rect" : [ 896.0, 81.0, 61.0, 61.0 ],
					"style" : ""
				}

			}
, 			{
				"box" : 				{
					"fontsize" : 46.097158,
					"id" : "obj-14",
					"maxclass" : "newobj",
					"numinlets" : 2,
					"numoutlets" : 1,
					"outlettype" : [ "bang" ],
					"patching_rect" : [ 896.0, 179.098602, 243.0, 60.0 ],
					"style" : "",
					"text" : "metro 1000"
				}

			}
, 			{
				"box" : 				{
					"fontsize" : 37.657135,
					"id" : "obj-11",
					"maxclass" : "number",
					"numinlets" : 1,
					"numoutlets" : 2,
					"outlettype" : [ "", "bang" ],
					"parameter_enable" : 0,
					"patching_rect" : [ 233.0, 119.699997, 115.0, 51.0 ],
					"style" : ""
				}

			}
, 			{
				"box" : 				{
					"clipheight" : 43.285714,
					"data" : 					{
						"clips" : [ 							{
								"filename" : "Macintosh HD:/Users/Colasanto/OBRAS/analogico/Tonico/nota/nota2.aiff",
								"filekind" : "audiofile",
								"loop" : 0,
								"content_state" : 								{
									"pitchcorrection" : [ 0 ],
									"formantcorrection" : [ 0 ],
									"speed" : [ 1.0 ],
									"formant" : [ 1.0 ],
									"pitchshift" : [ 1.0 ],
									"basictuning" : [ 440 ],
									"originaltempo" : [ 120.0 ],
									"originallengthms" : [ 0.0 ],
									"mode" : [ "basic" ],
									"quality" : [ "basic" ],
									"followglobaltempo" : [ 0 ],
									"slurtime" : [ 0.0 ],
									"play" : [ 0 ],
									"originallength" : [ 0.0, "ticks" ],
									"timestretch" : [ 0 ]
								}

							}
, 							{
								"filename" : "Macintosh HD:/Users/Colasanto/OBRAS/analogico/Tonico/nota/nota3.aiff",
								"filekind" : "audiofile",
								"loop" : 0,
								"content_state" : 								{
									"pitchcorrection" : [ 0 ],
									"formantcorrection" : [ 0 ],
									"speed" : [ 1.0 ],
									"formant" : [ 1.0 ],
									"pitchshift" : [ 1.0 ],
									"basictuning" : [ 440 ],
									"originaltempo" : [ 120.0 ],
									"originallengthms" : [ 0.0 ],
									"mode" : [ "basic" ],
									"quality" : [ "basic" ],
									"followglobaltempo" : [ 0 ],
									"slurtime" : [ 0.0 ],
									"play" : [ 0 ],
									"originallength" : [ 0.0, "ticks" ],
									"timestretch" : [ 0 ]
								}

							}
, 							{
								"filename" : "Macintosh HD:/Users/Colasanto/OBRAS/analogico/Tonico/nota/nota4.aiff",
								"filekind" : "audiofile",
								"loop" : 0,
								"content_state" : 								{
									"pitchcorrection" : [ 0 ],
									"formantcorrection" : [ 0 ],
									"speed" : [ 1.0 ],
									"formant" : [ 1.0 ],
									"pitchshift" : [ 1.0 ],
									"basictuning" : [ 440 ],
									"originaltempo" : [ 120.0 ],
									"originallengthms" : [ 0.0 ],
									"mode" : [ "basic" ],
									"quality" : [ "basic" ],
									"followglobaltempo" : [ 0 ],
									"slurtime" : [ 0.0 ],
									"play" : [ 0 ],
									"originallength" : [ 0.0, "ticks" ],
									"timestretch" : [ 0 ]
								}

							}
, 							{
								"filename" : "Macintosh HD:/Users/Colasanto/OBRAS/analogico/Tonico/nota/nota6.aiff",
								"filekind" : "audiofile",
								"loop" : 0,
								"content_state" : 								{
									"pitchcorrection" : [ 0 ],
									"formantcorrection" : [ 0 ],
									"speed" : [ 1.0 ],
									"formant" : [ 1.0 ],
									"pitchshift" : [ 1.0 ],
									"basictuning" : [ 440 ],
									"originaltempo" : [ 120.0 ],
									"originallengthms" : [ 0.0 ],
									"mode" : [ "basic" ],
									"quality" : [ "basic" ],
									"followglobaltempo" : [ 0 ],
									"slurtime" : [ 0.0 ],
									"play" : [ 0 ],
									"originallength" : [ 0.0, "ticks" ],
									"timestretch" : [ 0 ]
								}

							}
, 							{
								"filename" : "Macintosh HD:/Users/Colasanto/OBRAS/analogico/Tonico/nota/nota7.aiff",
								"filekind" : "audiofile",
								"loop" : 0,
								"content_state" : 								{
									"pitchcorrection" : [ 0 ],
									"formantcorrection" : [ 0 ],
									"speed" : [ 1.0 ],
									"formant" : [ 1.0 ],
									"pitchshift" : [ 1.0 ],
									"basictuning" : [ 440 ],
									"originaltempo" : [ 120.0 ],
									"originallengthms" : [ 0.0 ],
									"mode" : [ "basic" ],
									"quality" : [ "basic" ],
									"followglobaltempo" : [ 0 ],
									"slurtime" : [ 0.0 ],
									"play" : [ 0 ],
									"originallength" : [ 0.0, "ticks" ],
									"timestretch" : [ 0 ]
								}

							}
, 							{
								"filename" : "Macintosh HD:/Users/Colasanto/OBRAS/analogico/Tonico/nota/nota8.aiff",
								"filekind" : "audiofile",
								"loop" : 0,
								"content_state" : 								{
									"pitchcorrection" : [ 0 ],
									"formantcorrection" : [ 0 ],
									"speed" : [ 1.0 ],
									"formant" : [ 1.0 ],
									"pitchshift" : [ 1.0 ],
									"basictuning" : [ 440 ],
									"originaltempo" : [ 120.0 ],
									"originallengthms" : [ 0.0 ],
									"mode" : [ "basic" ],
									"quality" : [ "basic" ],
									"followglobaltempo" : [ 0 ],
									"slurtime" : [ 0.0 ],
									"play" : [ 0 ],
									"originallength" : [ 0.0, "ticks" ],
									"timestretch" : [ 0 ]
								}

							}
, 							{
								"filename" : "Macintosh HD:/Users/Colasanto/OBRAS/analogico/Tonico/nota/nota9.aiff",
								"filekind" : "audiofile",
								"loop" : 0,
								"content_state" : 								{
									"pitchcorrection" : [ 0 ],
									"formantcorrection" : [ 0 ],
									"speed" : [ 1.0 ],
									"formant" : [ 1.0 ],
									"pitchshift" : [ 1.0 ],
									"basictuning" : [ 440 ],
									"originaltempo" : [ 120.0 ],
									"originallengthms" : [ 0.0 ],
									"mode" : [ "basic" ],
									"quality" : [ "basic" ],
									"followglobaltempo" : [ 0 ],
									"slurtime" : [ 0.0 ],
									"play" : [ 0 ],
									"originallength" : [ 0.0, "ticks" ],
									"timestretch" : [ 0 ]
								}

							}
 ]
					}
,
					"id" : "obj-9",
					"maxclass" : "playlist~",
					"numinlets" : 1,
					"numoutlets" : 5,
					"outlettype" : [ "signal", "signal", "signal", "", "dictionary" ],
					"patching_rect" : [ 233.0, 193.0, 517.0, 310.0 ],
					"style" : ""
				}

			}
, 			{
				"box" : 				{
					"id" : "obj-3",
					"maxclass" : "ezdac~",
					"numinlets" : 2,
					"numoutlets" : 0,
					"patching_rect" : [ 229.0, 636.0, 98.0, 98.0 ],
					"style" : ""
				}

			}
 ],
		"lines" : [ 			{
				"patchline" : 				{
					"destination" : [ "obj-9", 0 ],
					"disabled" : 0,
					"hidden" : 0,
					"source" : [ "obj-11", 0 ]
				}

			}
, 			{
				"patchline" : 				{
					"color" : [ 0.784314, 0.145098, 0.023529, 0.9 ],
					"destination" : [ "obj-17", 0 ],
					"disabled" : 0,
					"hidden" : 0,
					"source" : [ "obj-14", 0 ]
				}

			}
, 			{
				"patchline" : 				{
					"destination" : [ "obj-22", 0 ],
					"disabled" : 0,
					"hidden" : 0,
					"midpoints" : [ 905.5, 248.0, 781.5, 248.0 ],
					"source" : [ "obj-14", 0 ]
				}

			}
, 			{
				"patchline" : 				{
					"color" : [ 0.0, 0.078431, 0.321569, 0.9 ],
					"destination" : [ "obj-26", 0 ],
					"disabled" : 0,
					"hidden" : 0,
					"midpoints" : [ 905.5, 473.0, 835.5, 473.0 ],
					"source" : [ "obj-14", 0 ]
				}

			}
, 			{
				"patchline" : 				{
					"destination" : [ "obj-14", 0 ],
					"disabled" : 0,
					"hidden" : 0,
					"source" : [ "obj-16", 0 ]
				}

			}
, 			{
				"patchline" : 				{
					"color" : [ 0.784314, 0.145098, 0.023529, 0.9 ],
					"destination" : [ "obj-11", 0 ],
					"disabled" : 0,
					"hidden" : 0,
					"midpoints" : [ 963.5, 348.0, 828.0, 348.0, 828.0, 73.0, 242.5, 73.0 ],
					"source" : [ "obj-17", 0 ]
				}

			}
, 			{
				"patchline" : 				{
					"destination" : [ "obj-3", 0 ],
					"disabled" : 0,
					"hidden" : 0,
					"source" : [ "obj-20", 0 ]
				}

			}
, 			{
				"patchline" : 				{
					"destination" : [ "obj-3", 1 ],
					"disabled" : 0,
					"hidden" : 0,
					"midpoints" : [ 367.0, 625.43219, 317.5, 625.43219 ],
					"source" : [ "obj-21", 0 ]
				}

			}
, 			{
				"patchline" : 				{
					"destination" : [ "obj-25", 0 ],
					"disabled" : 0,
					"hidden" : 0,
					"source" : [ "obj-22", 0 ]
				}

			}
, 			{
				"patchline" : 				{
					"destination" : [ "obj-20", 1 ],
					"disabled" : 0,
					"hidden" : 0,
					"midpoints" : [ 781.5, 647.098633, 549.5, 647.098633, 549.5, 537.86438, 317.5, 537.86438 ],
					"source" : [ "obj-23", 0 ]
				}

			}
, 			{
				"patchline" : 				{
					"destination" : [ "obj-21", 1 ],
					"disabled" : 0,
					"hidden" : 0,
					"midpoints" : [ 781.5, 647.098633, 613.75, 647.098633, 613.75, 542.86438, 446.0, 542.86438 ],
					"source" : [ "obj-23", 0 ]
				}

			}
, 			{
				"patchline" : 				{
					"destination" : [ "obj-23", 0 ],
					"disabled" : 0,
					"hidden" : 0,
					"source" : [ "obj-25", 0 ]
				}

			}
, 			{
				"patchline" : 				{
					"destination" : [ "obj-23", 0 ],
					"disabled" : 0,
					"hidden" : 0,
					"source" : [ "obj-26", 0 ]
				}

			}
, 			{
				"patchline" : 				{
					"destination" : [ "obj-20", 0 ],
					"disabled" : 0,
					"hidden" : 0,
					"source" : [ "obj-9", 0 ]
				}

			}
, 			{
				"patchline" : 				{
					"destination" : [ "obj-21", 0 ],
					"disabled" : 0,
					"hidden" : 0,
					"source" : [ "obj-9", 1 ]
				}

			}
 ],
		"dependency_cache" : [ 			{
				"name" : "nota2.aiff",
				"bootpath" : "/Users/Colasanto/OBRAS/analogico/Tonico/nota",
				"type" : "AIFF",
				"implicit" : 1
			}
, 			{
				"name" : "nota3.aiff",
				"bootpath" : "/Users/Colasanto/OBRAS/analogico/Tonico/nota",
				"type" : "AIFF",
				"implicit" : 1
			}
, 			{
				"name" : "nota4.aiff",
				"bootpath" : "/Users/Colasanto/OBRAS/analogico/Tonico/nota",
				"type" : "AIFF",
				"implicit" : 1
			}
, 			{
				"name" : "nota6.aiff",
				"bootpath" : "/Users/Colasanto/OBRAS/analogico/Tonico/nota",
				"type" : "AIFF",
				"implicit" : 1
			}
, 			{
				"name" : "nota7.aiff",
				"bootpath" : "/Users/Colasanto/OBRAS/analogico/Tonico/nota",
				"type" : "AIFF",
				"implicit" : 1
			}
, 			{
				"name" : "nota8.aiff",
				"bootpath" : "/Users/Colasanto/OBRAS/analogico/Tonico/nota",
				"type" : "AIFF",
				"implicit" : 1
			}
, 			{
				"name" : "nota9.aiff",
				"bootpath" : "/Users/Colasanto/OBRAS/analogico/Tonico/nota",
				"type" : "AIFF",
				"implicit" : 1
			}
 ],
		"autosave" : 0
	}

}
