#N canvas 334 93 961 634 10;
#X obj -13 1 gemhead;
#X obj 122 28 gemwin;
#X obj -13 144 pix_video;
#X obj 252 531 pix_texture;
#X msg 314 497 quality \$1;
#X obj 319 472 tgl 15 0 empty empty empty 17 7 0 10 -262144 -1 -1 0
1;
#X obj 250 557 rectangle 5.33 4;
#X msg 9 34 device 0;
#X msg 122 -4 dimen 800 600 \, create \, 1;
#X obj -13 375 pix_duotone;
#X obj -9 284 pix_2gray;
#X obj 83 218 pix_diff;
#X obj 185 252 pix_blur;
#X floatatom 202 203 5 0 0 0 - - -;
#X obj 138 292 pix_buf;
#X obj 202 175 hsl 128 15 -3 3 0 0 empty empty empty -2 -8 0 10 -262144
-1 -1 8100 1;
#X obj 150 368 pix_kaleidoscope;
#X obj 1 172 pix_rgb2hsv;
#X obj 202 98 osc~ 0.01;
#X obj 202 142 * 1.5;
#X obj 178 444 pix_mask;
#X msg 56 317 1 1 1;
#X msg 56 343 0 0 0;
#X msg 57 290 0.2 0.4 0.4;
#X obj 180 474 alpha;
#X obj 380 15 tgl 15 0 empty empty empty 17 7 0 10 -262144 -1 -1 0
1;
#X floatatom 389 93 5 0 20000 0 - - -;
#X text 386 77 Carrier;
#X obj 388 231 +~;
#X obj 388 253 osc~;
#X obj 388 322 *~;
#X obj 437 369 dac~ 1 2;
#X obj 388 366 s~ VU;
#X obj 613 167 vu 15 120 empty empty -1 -8 0 10 -66577 -1 1 0;
#X obj 511 16 vsl 15 128 0 2000 0 0 empty empty empty 0 -9 0 10 -262144
-1 -1 0 1;
#X floatatom 427 128 5 0 60 0 - - -;
#X obj 427 147 osc~;
#X obj 427 189 *~;
#X floatatom 465 171 5 0 0 0 - - -;
#X text 426 110 Modulator;
#X obj 439 223 hsl 128 15 0 2 0 0 empty empty empty -2 -8 0 10 -262144
-1 -1 0 1;
#X obj 436 246 \$1 50;
#X obj 436 268 line~;
#X text 424 324 Final amp stage;
#X text 516 173 Mod Index;
#X obj 612 53 env~;
#X obj 612 125 - 100;
#N canvas 0 50 450 250 (subpatch) 0;
#X array disp 100 float 1;
#A 0 0 0 0 0 0 0 0 0 0 0 0 0 0 0 0 0 0 0 0 0 0 0 0 0 0 0 0 0 0 0 0
0 0 0 0 0 0 0 0 0 0 0 0 0 0 0 0 0 0 0 0 0 0 0 0 0 0 0 0 0 0 0 0 0 0
0 0 0 0 0 0 0 0 0 0 0 0 0 0 0 0 0 0 0 0 0 0 0 0 0 0 0 0 0 0 0 0 0 0
0;
#X coords 0 1 99 -1 200 140 1 0 0;
#X restore 696 287 graph;
#X msg 379 32 \; pd dsp \$1 \; metro \$1;
#X obj 707 43 r~ VU;
#X obj 768 16 r metro;
#X obj 766 47 metro 10;
#X obj 709 94 tabwrite~ disp;
#X obj 612 26 r~ VU;
#X connect 0 0 2 0;
#X connect 2 0 17 0;
#X connect 3 0 6 0;
#X connect 4 0 3 0;
#X connect 5 0 4 0;
#X connect 7 0 2 0;
#X connect 8 0 1 0;
#X connect 9 0 20 1;
#X connect 10 0 9 0;
#X connect 11 0 12 0;
#X connect 12 0 14 0;
#X connect 13 0 12 1;
#X connect 14 0 11 1;
#X connect 14 0 16 0;
#X connect 15 0 13 0;
#X connect 16 0 20 0;
#X connect 16 0 3 0;
#X connect 17 0 11 0;
#X connect 17 0 10 0;
#X connect 18 0 19 0;
#X connect 19 0 15 0;
#X connect 20 0 24 0;
#X connect 21 0 9 2;
#X connect 22 0 9 3;
#X connect 23 0 9 1;
#X connect 25 0 48 0;
#X connect 26 0 28 0;
#X connect 28 0 29 0;
#X connect 29 0 30 0;
#X connect 30 0 31 0;
#X connect 30 0 31 1;
#X connect 30 0 32 0;
#X connect 34 0 38 0;
#X connect 35 0 36 0;
#X connect 36 0 37 0;
#X connect 37 0 28 1;
#X connect 38 0 37 1;
#X connect 40 0 41 0;
#X connect 41 0 42 0;
#X connect 42 0 30 1;
#X connect 45 0 46 0;
#X connect 46 0 33 0;
#X connect 49 0 52 0;
#X connect 50 0 51 0;
#X connect 51 0 52 0;
#X connect 53 0 45 0;
