#N canvas 756 145 535 623 10;
#X obj -13 1 gemhead;
#X obj 122 28 gemwin;
#X obj -13 144 pix_video;
#X obj 252 531 pix_texture;
#X msg 314 497 quality \$1;
#X obj 319 472 tgl 15 0 empty empty empty 17 7 0 10 -262144 -1 -1 0
1;
#X obj 250 557 rectangle 5.33 4;
#X msg 9 34 device 0;
#X msg 122 -4 dimen 800 600 \, create \, 1;
#X obj -13 375 pix_duotone;
#X obj -9 284 pix_2gray;
#X obj 83 218 pix_diff;
#X obj 185 252 pix_blur;
#X floatatom 202 203 5 0 0 0 - - -;
#X obj 138 292 pix_buf;
#X obj 205 172 hsl 128 15 -3 3 0 0 empty empty empty -2 -8 0 10 -262144
-1 -1 8300 1;
#X obj 150 368 pix_kaleidoscope;
#X obj 1 172 pix_rgb2hsv;
#X obj 202 98 osc~ 0.01;
#X obj 202 142 * 1.5;
#X obj 178 444 pix_mask;
#X msg 56 317 1 1 1;
#X msg 56 343 0 0 0;
#X msg 57 290 0.2 0.4 0.4;
#X obj 180 474 alpha;
#X obj 182 504 pix_texture;
#X connect 0 0 2 0;
#X connect 2 0 17 0;
#X connect 3 0 6 0;
#X connect 4 0 3 0;
#X connect 5 0 4 0;
#X connect 7 0 2 0;
#X connect 8 0 1 0;
#X connect 9 0 20 1;
#X connect 10 0 9 0;
#X connect 11 0 12 0;
#X connect 12 0 14 0;
#X connect 13 0 12 1;
#X connect 14 0 11 1;
#X connect 14 0 16 0;
#X connect 15 0 13 0;
#X connect 16 0 20 0;
#X connect 17 0 11 0;
#X connect 17 0 10 0;
#X connect 18 0 19 0;
#X connect 19 0 15 0;
#X connect 20 0 24 0;
#X connect 21 0 9 2;
#X connect 22 0 9 3;
#X connect 23 0 9 1;
#X connect 24 0 25 0;
#X connect 25 0 3 0;
