#N canvas 205 634 637 472 10;
#X obj 19 126 nbx 5 14 -1e+37 1e+37 0 0 empty empty empty 0 -8 0 10
-262144 -1 -1 76 256;
#X obj 19 155 makenote 127 100;
#X obj 20 190 noteout;
#X obj 295 64 notein;
#X floatatom 283 123 5 0 0 0 - - -, f 5;
#X floatatom 325 125 5 0 0 0 - - -, f 5;
#X floatatom 240 126 5 0 0 0 - - -, f 5;
#X connect 0 0 1 0;
#X connect 1 0 2 0;
#X connect 1 1 2 1;
#X connect 3 0 6 0;
#X connect 3 1 4 0;
#X connect 3 2 5 0;
#X coords 0 472 1 471 85 60 0;
