#N canvas 593 128 500 640 10;
#X floatatom 8 -3 5 0 0 0 - - -;
#N canvas 652 319 450 300 osc 0;
#X obj 30 26 inlet;
#X obj 317 28 r freq;
#X text 27 8 Receive a number;
#X obj 29 131 *~;
#X floatatom 158 85 5 0.9 1 2 Max_Amp - -;
#X text 315 11 General frequency;
#X obj 86 148 / 1;
#X obj 29 222 *~;
#X obj 86 190 sig~;
#X obj 158 22 loadbang;
#X msg 158 50 1;
#X obj 30 97 osc~;
#X obj 318 83 osc~;
#X floatatom 86 170 5 0 0 0 - - -;
#X floatatom 86 57 5 0 0 0 - - -;
#X obj 86 84 t b f;
#X obj 30 66 sig~;
#X obj 317 56 sig~;
#X obj 29 252 send~ sig;
#X connect 0 0 14 0;
#X connect 0 0 16 0;
#X connect 1 0 17 0;
#X connect 3 0 7 0;
#X connect 4 0 6 0;
#X connect 6 0 13 0;
#X connect 7 0 18 0;
#X connect 8 0 7 1;
#X connect 9 0 10 0;
#X connect 10 0 4 0;
#X connect 11 0 3 0;
#X connect 12 0 3 1;
#X connect 13 0 8 0;
#X connect 14 0 15 0;
#X connect 15 0 6 0;
#X connect 15 1 6 1;
#X connect 16 0 11 0;
#X connect 17 0 12 0;
#X restore 8 20 pd osc;
#X floatatom 378 21 5 0 0 0 - - -;
#X obj 378 44 s freq;
#X msg 378 -3 set 440;
#X obj 23 284;
#X obj 23 284 dac~;
#X floatatom 51 -3 5 0 0 0 - - -;
#N canvas 649 332 450 300 osc 0;
#X obj 30 26 inlet;
#X obj 317 28 r freq;
#X text 27 8 Receive a number;
#X obj 29 131 *~;
#X floatatom 158 85 5 0.9 1 2 Max_Amp - -;
#X text 315 11 General frequency;
#X obj 86 148 / 1;
#X obj 29 222 *~;
#X obj 86 190 sig~;
#X obj 158 22 loadbang;
#X msg 158 50 1;
#X obj 30 97 osc~;
#X obj 318 83 osc~;
#X floatatom 86 170 5 0 0 0 - - -;
#X floatatom 86 57 5 0 0 0 - - -;
#X obj 86 84 t b f;
#X obj 30 66 sig~;
#X obj 317 56 sig~;
#X obj 29 252 send~ sig;
#X connect 0 0 14 0;
#X connect 0 0 16 0;
#X connect 1 0 17 0;
#X connect 3 0 7 0;
#X connect 4 0 6 0;
#X connect 6 0 13 0;
#X connect 7 0 18 0;
#X connect 8 0 7 1;
#X connect 9 0 10 0;
#X connect 10 0 4 0;
#X connect 11 0 3 0;
#X connect 12 0 3 1;
#X connect 13 0 8 0;
#X connect 14 0 15 0;
#X connect 15 0 6 0;
#X connect 15 1 6 1;
#X connect 16 0 11 0;
#X connect 17 0 12 0;
#X restore 51 20 pd osc;
#X floatatom 94 -3 5 0 0 0 - - -;
#N canvas 649 332 450 300 osc 0;
#X obj 30 26 inlet;
#X obj 317 28 r freq;
#X text 27 8 Receive a number;
#X obj 29 131 *~;
#X floatatom 158 85 5 0.9 1 2 Max_Amp - -;
#X text 315 11 General frequency;
#X obj 86 148 / 1;
#X obj 29 222 *~;
#X obj 86 190 sig~;
#X obj 158 22 loadbang;
#X msg 158 50 1;
#X obj 30 97 osc~;
#X obj 318 83 osc~;
#X floatatom 86 170 5 0 0 0 - - -;
#X floatatom 86 57 5 0 0 0 - - -;
#X obj 86 84 t b f;
#X obj 30 66 sig~;
#X obj 317 56 sig~;
#X obj 29 252 send~ sig;
#X connect 0 0 14 0;
#X connect 0 0 16 0;
#X connect 1 0 17 0;
#X connect 3 0 7 0;
#X connect 4 0 6 0;
#X connect 6 0 13 0;
#X connect 7 0 18 0;
#X connect 8 0 7 1;
#X connect 9 0 10 0;
#X connect 10 0 4 0;
#X connect 11 0 3 0;
#X connect 12 0 3 1;
#X connect 13 0 8 0;
#X connect 14 0 15 0;
#X connect 15 0 6 0;
#X connect 15 1 6 1;
#X connect 16 0 11 0;
#X connect 17 0 12 0;
#X restore 94 20 pd osc;
#X floatatom 137 -3 5 0 0 0 - - -;
#N canvas 649 332 450 300 osc 0;
#X obj 30 26 inlet;
#X obj 317 28 r freq;
#X text 27 8 Receive a number;
#X obj 29 131 *~;
#X floatatom 158 85 5 0.9 1 2 Max_Amp - -;
#X text 315 11 General frequency;
#X obj 86 148 / 1;
#X obj 29 222 *~;
#X obj 86 190 sig~;
#X obj 158 22 loadbang;
#X msg 158 50 1;
#X obj 30 97 osc~;
#X obj 318 83 osc~;
#X floatatom 86 170 5 0 0 0 - - -;
#X floatatom 86 57 5 0 0 0 - - -;
#X obj 86 84 t b f;
#X obj 30 66 sig~;
#X obj 317 56 sig~;
#X obj 29 252 send~ sig;
#X connect 0 0 14 0;
#X connect 0 0 16 0;
#X connect 1 0 17 0;
#X connect 3 0 7 0;
#X connect 4 0 6 0;
#X connect 6 0 13 0;
#X connect 7 0 18 0;
#X connect 8 0 7 1;
#X connect 9 0 10 0;
#X connect 10 0 4 0;
#X connect 11 0 3 0;
#X connect 12 0 3 1;
#X connect 13 0 8 0;
#X connect 14 0 15 0;
#X connect 15 0 6 0;
#X connect 15 1 6 1;
#X connect 16 0 11 0;
#X connect 17 0 12 0;
#X restore 137 20 pd osc;
#X floatatom 180 -3 5 0 0 0 - - -;
#N canvas 652 319 450 300 osc 0;
#X obj 30 26 inlet;
#X obj 317 28 r freq;
#X text 27 8 Receive a number;
#X obj 29 131 *~;
#X floatatom 158 85 5 0.9 1 2 Max_Amp - -;
#X text 315 11 General frequency;
#X obj 86 148 / 1;
#X obj 29 222 *~;
#X obj 86 190 sig~;
#X obj 158 22 loadbang;
#X msg 158 50 1;
#X obj 30 97 osc~;
#X obj 318 83 osc~;
#X floatatom 86 170 5 0 0 0 - - -;
#X floatatom 86 57 5 0 0 0 - - -;
#X obj 86 84 t b f;
#X obj 30 66 sig~;
#X obj 317 56 sig~;
#X obj 29 252 send~ sig;
#X connect 0 0 14 0;
#X connect 0 0 16 0;
#X connect 1 0 17 0;
#X connect 3 0 7 0;
#X connect 4 0 6 0;
#X connect 6 0 13 0;
#X connect 7 0 18 0;
#X connect 8 0 7 1;
#X connect 9 0 10 0;
#X connect 10 0 4 0;
#X connect 11 0 3 0;
#X connect 12 0 3 1;
#X connect 13 0 8 0;
#X connect 14 0 15 0;
#X connect 15 0 6 0;
#X connect 15 1 6 1;
#X connect 16 0 11 0;
#X connect 17 0 12 0;
#X restore 180 20 pd osc;
#X floatatom 223 -3 5 0 0 0 - - -;
#N canvas 649 332 450 300 osc 0;
#X obj 30 26 inlet;
#X obj 317 28 r freq;
#X text 27 8 Receive a number;
#X obj 29 131 *~;
#X floatatom 158 85 5 0.9 1 2 Max_Amp - -;
#X text 315 11 General frequency;
#X obj 86 148 / 1;
#X obj 29 222 *~;
#X obj 86 190 sig~;
#X obj 158 22 loadbang;
#X msg 158 50 1;
#X obj 30 97 osc~;
#X obj 318 83 osc~;
#X floatatom 86 170 5 0 0 0 - - -;
#X floatatom 86 57 5 0 0 0 - - -;
#X obj 86 84 t b f;
#X obj 30 66 sig~;
#X obj 317 56 sig~;
#X obj 29 252 send~ sig;
#X connect 0 0 14 0;
#X connect 0 0 16 0;
#X connect 1 0 17 0;
#X connect 3 0 7 0;
#X connect 4 0 6 0;
#X connect 6 0 13 0;
#X connect 7 0 18 0;
#X connect 8 0 7 1;
#X connect 9 0 10 0;
#X connect 10 0 4 0;
#X connect 11 0 3 0;
#X connect 12 0 3 1;
#X connect 13 0 8 0;
#X connect 14 0 15 0;
#X connect 15 0 6 0;
#X connect 15 1 6 1;
#X connect 16 0 11 0;
#X connect 17 0 12 0;
#X restore 223 20 pd osc;
#X floatatom 266 -3 5 0 0 0 - - -;
#N canvas 649 332 450 300 osc 0;
#X obj 30 26 inlet;
#X obj 317 28 r freq;
#X text 27 8 Receive a number;
#X obj 29 131 *~;
#X floatatom 158 85 5 0.9 1 2 Max_Amp - -;
#X text 315 11 General frequency;
#X obj 86 148 / 1;
#X obj 29 222 *~;
#X obj 86 190 sig~;
#X obj 158 22 loadbang;
#X msg 158 50 1;
#X obj 30 97 osc~;
#X obj 318 83 osc~;
#X floatatom 86 170 5 0 0 0 - - -;
#X floatatom 86 57 5 0 0 0 - - -;
#X obj 86 84 t b f;
#X obj 30 66 sig~;
#X obj 317 56 sig~;
#X obj 29 252 send~ sig;
#X connect 0 0 14 0;
#X connect 0 0 16 0;
#X connect 1 0 17 0;
#X connect 3 0 7 0;
#X connect 4 0 6 0;
#X connect 6 0 13 0;
#X connect 7 0 18 0;
#X connect 8 0 7 1;
#X connect 9 0 10 0;
#X connect 10 0 4 0;
#X connect 11 0 3 0;
#X connect 12 0 3 1;
#X connect 13 0 8 0;
#X connect 14 0 15 0;
#X connect 15 0 6 0;
#X connect 15 1 6 1;
#X connect 16 0 11 0;
#X connect 17 0 12 0;
#X restore 266 20 pd osc;
#X floatatom 309 -3 5 0 0 0 - - -;
#N canvas 649 332 450 300 osc 0;
#X obj 30 26 inlet;
#X obj 317 28 r freq;
#X text 27 8 Receive a number;
#X obj 29 131 *~;
#X floatatom 158 85 5 0.9 1 2 Max_Amp - -;
#X text 315 11 General frequency;
#X obj 86 148 / 1;
#X obj 29 222 *~;
#X obj 86 190 sig~;
#X obj 158 22 loadbang;
#X msg 158 50 1;
#X obj 30 97 osc~;
#X obj 318 83 osc~;
#X floatatom 86 170 5 0 0 0 - - -;
#X floatatom 86 57 5 0 0 0 - - -;
#X obj 86 84 t b f;
#X obj 30 66 sig~;
#X obj 317 56 sig~;
#X obj 29 252 send~ sig;
#X connect 0 0 14 0;
#X connect 0 0 16 0;
#X connect 1 0 17 0;
#X connect 3 0 7 0;
#X connect 4 0 6 0;
#X connect 6 0 13 0;
#X connect 7 0 18 0;
#X connect 8 0 7 1;
#X connect 9 0 10 0;
#X connect 10 0 4 0;
#X connect 11 0 3 0;
#X connect 12 0 3 1;
#X connect 13 0 8 0;
#X connect 14 0 15 0;
#X connect 15 0 6 0;
#X connect 15 1 6 1;
#X connect 16 0 11 0;
#X connect 17 0 12 0;
#X restore 309 20 pd osc;
#X floatatom 9 42 5 0 0 0 - - -;
#N canvas 649 332 450 300 osc 0;
#X obj 30 26 inlet;
#X obj 317 28 r freq;
#X text 27 8 Receive a number;
#X obj 29 131 *~;
#X floatatom 158 85 5 0.9 1 2 Max_Amp - -;
#X text 315 11 General frequency;
#X obj 86 148 / 1;
#X obj 29 222 *~;
#X obj 86 190 sig~;
#X obj 158 22 loadbang;
#X msg 158 50 1;
#X obj 30 97 osc~;
#X obj 318 83 osc~;
#X floatatom 86 170 5 0 0 0 - - -;
#X floatatom 86 57 5 0 0 0 - - -;
#X obj 86 84 t b f;
#X obj 30 66 sig~;
#X obj 317 56 sig~;
#X obj 29 252 send~ sig;
#X connect 0 0 14 0;
#X connect 0 0 16 0;
#X connect 1 0 17 0;
#X connect 3 0 7 0;
#X connect 4 0 6 0;
#X connect 6 0 13 0;
#X connect 7 0 18 0;
#X connect 8 0 7 1;
#X connect 9 0 10 0;
#X connect 10 0 4 0;
#X connect 11 0 3 0;
#X connect 12 0 3 1;
#X connect 13 0 8 0;
#X connect 14 0 15 0;
#X connect 15 0 6 0;
#X connect 15 1 6 1;
#X connect 16 0 11 0;
#X connect 17 0 12 0;
#X restore 9 65 pd osc;
#X floatatom 52 42 5 0 0 0 - - -;
#N canvas 649 332 450 300 osc 0;
#X obj 30 26 inlet;
#X obj 317 28 r freq;
#X text 27 8 Receive a number;
#X obj 29 131 *~;
#X floatatom 158 85 5 0.9 1 2 Max_Amp - -;
#X text 315 11 General frequency;
#X obj 86 148 / 1;
#X obj 29 222 *~;
#X obj 86 190 sig~;
#X obj 158 22 loadbang;
#X msg 158 50 1;
#X obj 30 97 osc~;
#X obj 318 83 osc~;
#X floatatom 86 170 5 0 0 0 - - -;
#X floatatom 86 57 5 0 0 0 - - -;
#X obj 86 84 t b f;
#X obj 30 66 sig~;
#X obj 317 56 sig~;
#X obj 29 252 send~ sig;
#X connect 0 0 14 0;
#X connect 0 0 16 0;
#X connect 1 0 17 0;
#X connect 3 0 7 0;
#X connect 4 0 6 0;
#X connect 6 0 13 0;
#X connect 7 0 18 0;
#X connect 8 0 7 1;
#X connect 9 0 10 0;
#X connect 10 0 4 0;
#X connect 11 0 3 0;
#X connect 12 0 3 1;
#X connect 13 0 8 0;
#X connect 14 0 15 0;
#X connect 15 0 6 0;
#X connect 15 1 6 1;
#X connect 16 0 11 0;
#X connect 17 0 12 0;
#X restore 52 65 pd osc;
#X floatatom 95 42 5 0 0 0 - - -;
#N canvas 649 332 450 300 osc 0;
#X obj 30 26 inlet;
#X obj 317 28 r freq;
#X text 27 8 Receive a number;
#X obj 29 131 *~;
#X floatatom 158 85 5 0.9 1 2 Max_Amp - -;
#X text 315 11 General frequency;
#X obj 86 148 / 1;
#X obj 29 222 *~;
#X obj 86 190 sig~;
#X obj 158 22 loadbang;
#X msg 158 50 1;
#X obj 30 97 osc~;
#X obj 318 83 osc~;
#X floatatom 86 170 5 0 0 0 - - -;
#X floatatom 86 57 5 0 0 0 - - -;
#X obj 86 84 t b f;
#X obj 30 66 sig~;
#X obj 317 56 sig~;
#X obj 29 252 send~ sig;
#X connect 0 0 14 0;
#X connect 0 0 16 0;
#X connect 1 0 17 0;
#X connect 3 0 7 0;
#X connect 4 0 6 0;
#X connect 6 0 13 0;
#X connect 7 0 18 0;
#X connect 8 0 7 1;
#X connect 9 0 10 0;
#X connect 10 0 4 0;
#X connect 11 0 3 0;
#X connect 12 0 3 1;
#X connect 13 0 8 0;
#X connect 14 0 15 0;
#X connect 15 0 6 0;
#X connect 15 1 6 1;
#X connect 16 0 11 0;
#X connect 17 0 12 0;
#X restore 95 65 pd osc;
#X floatatom 138 42 5 0 0 0 - - -;
#N canvas 649 332 450 300 osc 0;
#X obj 30 26 inlet;
#X obj 317 28 r freq;
#X text 27 8 Receive a number;
#X obj 29 131 *~;
#X floatatom 158 85 5 0.9 1 2 Max_Amp - -;
#X text 315 11 General frequency;
#X obj 86 148 / 1;
#X obj 29 222 *~;
#X obj 86 190 sig~;
#X obj 158 22 loadbang;
#X msg 158 50 1;
#X obj 30 97 osc~;
#X obj 318 83 osc~;
#X floatatom 86 170 5 0 0 0 - - -;
#X floatatom 86 57 5 0 0 0 - - -;
#X obj 86 84 t b f;
#X obj 30 66 sig~;
#X obj 317 56 sig~;
#X obj 29 252 send~ sig;
#X connect 0 0 14 0;
#X connect 0 0 16 0;
#X connect 1 0 17 0;
#X connect 3 0 7 0;
#X connect 4 0 6 0;
#X connect 6 0 13 0;
#X connect 7 0 18 0;
#X connect 8 0 7 1;
#X connect 9 0 10 0;
#X connect 10 0 4 0;
#X connect 11 0 3 0;
#X connect 12 0 3 1;
#X connect 13 0 8 0;
#X connect 14 0 15 0;
#X connect 15 0 6 0;
#X connect 15 1 6 1;
#X connect 16 0 11 0;
#X connect 17 0 12 0;
#X restore 138 65 pd osc;
#X floatatom 181 42 5 0 0 0 - - -;
#N canvas 652 319 450 300 osc 0;
#X obj 30 26 inlet;
#X obj 317 28 r freq;
#X text 27 8 Receive a number;
#X obj 29 131 *~;
#X floatatom 158 85 5 0.9 1 2 Max_Amp - -;
#X text 315 11 General frequency;
#X obj 86 148 / 1;
#X obj 29 222 *~;
#X obj 86 190 sig~;
#X obj 158 22 loadbang;
#X msg 158 50 1;
#X obj 30 97 osc~;
#X obj 318 83 osc~;
#X floatatom 86 170 5 0 0 0 - - -;
#X floatatom 86 57 5 0 0 0 - - -;
#X obj 86 84 t b f;
#X obj 30 66 sig~;
#X obj 317 56 sig~;
#X obj 29 252 send~ sig;
#X connect 0 0 14 0;
#X connect 0 0 16 0;
#X connect 1 0 17 0;
#X connect 3 0 7 0;
#X connect 4 0 6 0;
#X connect 6 0 13 0;
#X connect 7 0 18 0;
#X connect 8 0 7 1;
#X connect 9 0 10 0;
#X connect 10 0 4 0;
#X connect 11 0 3 0;
#X connect 12 0 3 1;
#X connect 13 0 8 0;
#X connect 14 0 15 0;
#X connect 15 0 6 0;
#X connect 15 1 6 1;
#X connect 16 0 11 0;
#X connect 17 0 12 0;
#X restore 181 65 pd osc;
#X floatatom 224 42 5 0 0 0 - - -;
#N canvas 649 332 450 300 osc 0;
#X obj 30 26 inlet;
#X obj 317 28 r freq;
#X text 27 8 Receive a number;
#X obj 29 131 *~;
#X floatatom 158 85 5 0.9 1 2 Max_Amp - -;
#X text 315 11 General frequency;
#X obj 86 148 / 1;
#X obj 29 222 *~;
#X obj 86 190 sig~;
#X obj 158 22 loadbang;
#X msg 158 50 1;
#X obj 30 97 osc~;
#X obj 318 83 osc~;
#X floatatom 86 170 5 0 0 0 - - -;
#X floatatom 86 57 5 0 0 0 - - -;
#X obj 86 84 t b f;
#X obj 30 66 sig~;
#X obj 317 56 sig~;
#X obj 29 252 send~ sig;
#X connect 0 0 14 0;
#X connect 0 0 16 0;
#X connect 1 0 17 0;
#X connect 3 0 7 0;
#X connect 4 0 6 0;
#X connect 6 0 13 0;
#X connect 7 0 18 0;
#X connect 8 0 7 1;
#X connect 9 0 10 0;
#X connect 10 0 4 0;
#X connect 11 0 3 0;
#X connect 12 0 3 1;
#X connect 13 0 8 0;
#X connect 14 0 15 0;
#X connect 15 0 6 0;
#X connect 15 1 6 1;
#X connect 16 0 11 0;
#X connect 17 0 12 0;
#X restore 224 65 pd osc;
#X floatatom 267 42 5 0 0 0 - - -;
#N canvas 649 332 450 300 osc 0;
#X obj 30 26 inlet;
#X obj 317 28 r freq;
#X text 27 8 Receive a number;
#X obj 29 131 *~;
#X floatatom 158 85 5 0.9 1 2 Max_Amp - -;
#X text 315 11 General frequency;
#X obj 86 148 / 1;
#X obj 29 222 *~;
#X obj 86 190 sig~;
#X obj 158 22 loadbang;
#X msg 158 50 1;
#X obj 30 97 osc~;
#X obj 318 83 osc~;
#X floatatom 86 170 5 0 0 0 - - -;
#X floatatom 86 57 5 0 0 0 - - -;
#X obj 86 84 t b f;
#X obj 30 66 sig~;
#X obj 317 56 sig~;
#X obj 29 252 send~ sig;
#X connect 0 0 14 0;
#X connect 0 0 16 0;
#X connect 1 0 17 0;
#X connect 3 0 7 0;
#X connect 4 0 6 0;
#X connect 6 0 13 0;
#X connect 7 0 18 0;
#X connect 8 0 7 1;
#X connect 9 0 10 0;
#X connect 10 0 4 0;
#X connect 11 0 3 0;
#X connect 12 0 3 1;
#X connect 13 0 8 0;
#X connect 14 0 15 0;
#X connect 15 0 6 0;
#X connect 15 1 6 1;
#X connect 16 0 11 0;
#X connect 17 0 12 0;
#X restore 267 65 pd osc;
#X floatatom 310 42 5 0 0 0 - - -;
#N canvas 649 332 450 300 osc 0;
#X obj 30 26 inlet;
#X obj 317 28 r freq;
#X text 27 8 Receive a number;
#X obj 29 131 *~;
#X floatatom 158 85 5 0.9 1 2 Max_Amp - -;
#X text 315 11 General frequency;
#X obj 86 148 / 1;
#X obj 29 222 *~;
#X obj 86 190 sig~;
#X obj 158 22 loadbang;
#X msg 158 50 1;
#X obj 30 97 osc~;
#X obj 318 83 osc~;
#X floatatom 86 170 5 0 0 0 - - -;
#X floatatom 86 57 5 0 0 0 - - -;
#X obj 86 84 t b f;
#X obj 30 66 sig~;
#X obj 317 56 sig~;
#X obj 29 252 send~ sig;
#X connect 0 0 14 0;
#X connect 0 0 16 0;
#X connect 1 0 17 0;
#X connect 3 0 7 0;
#X connect 4 0 6 0;
#X connect 6 0 13 0;
#X connect 7 0 18 0;
#X connect 8 0 7 1;
#X connect 9 0 10 0;
#X connect 10 0 4 0;
#X connect 11 0 3 0;
#X connect 12 0 3 1;
#X connect 13 0 8 0;
#X connect 14 0 15 0;
#X connect 15 0 6 0;
#X connect 15 1 6 1;
#X connect 16 0 11 0;
#X connect 17 0 12 0;
#X restore 310 65 pd osc;
#X floatatom 9 85 5 0 0 0 - - -;
#N canvas 652 319 450 300 osc 0;
#X obj 30 26 inlet;
#X obj 317 28 r freq;
#X text 27 8 Receive a number;
#X obj 29 131 *~;
#X floatatom 158 85 5 0.9 1 2 Max_Amp - -;
#X text 315 11 General frequency;
#X obj 86 148 / 1;
#X obj 29 222 *~;
#X obj 86 190 sig~;
#X obj 158 22 loadbang;
#X msg 158 50 1;
#X obj 30 97 osc~;
#X obj 318 83 osc~;
#X floatatom 86 170 5 0 0 0 - - -;
#X floatatom 86 57 5 0 0 0 - - -;
#X obj 86 84 t b f;
#X obj 30 66 sig~;
#X obj 317 56 sig~;
#X obj 29 252 send~ sig;
#X connect 0 0 14 0;
#X connect 0 0 16 0;
#X connect 1 0 17 0;
#X connect 3 0 7 0;
#X connect 4 0 6 0;
#X connect 6 0 13 0;
#X connect 7 0 18 0;
#X connect 8 0 7 1;
#X connect 9 0 10 0;
#X connect 10 0 4 0;
#X connect 11 0 3 0;
#X connect 12 0 3 1;
#X connect 13 0 8 0;
#X connect 14 0 15 0;
#X connect 15 0 6 0;
#X connect 15 1 6 1;
#X connect 16 0 11 0;
#X connect 17 0 12 0;
#X restore 9 108 pd osc;
#X floatatom 52 85 5 0 0 0 - - -;
#N canvas 649 332 450 300 osc 0;
#X obj 30 26 inlet;
#X obj 317 28 r freq;
#X text 27 8 Receive a number;
#X obj 29 131 *~;
#X floatatom 158 85 5 0.9 1 2 Max_Amp - -;
#X text 315 11 General frequency;
#X obj 86 148 / 1;
#X obj 29 222 *~;
#X obj 86 190 sig~;
#X obj 158 22 loadbang;
#X msg 158 50 1;
#X obj 30 97 osc~;
#X obj 318 83 osc~;
#X floatatom 86 170 5 0 0 0 - - -;
#X floatatom 86 57 5 0 0 0 - - -;
#X obj 86 84 t b f;
#X obj 30 66 sig~;
#X obj 317 56 sig~;
#X obj 29 252 send~ sig;
#X connect 0 0 14 0;
#X connect 0 0 16 0;
#X connect 1 0 17 0;
#X connect 3 0 7 0;
#X connect 4 0 6 0;
#X connect 6 0 13 0;
#X connect 7 0 18 0;
#X connect 8 0 7 1;
#X connect 9 0 10 0;
#X connect 10 0 4 0;
#X connect 11 0 3 0;
#X connect 12 0 3 1;
#X connect 13 0 8 0;
#X connect 14 0 15 0;
#X connect 15 0 6 0;
#X connect 15 1 6 1;
#X connect 16 0 11 0;
#X connect 17 0 12 0;
#X restore 52 108 pd osc;
#X floatatom 95 85 5 0 0 0 - - -;
#N canvas 649 332 450 300 osc 0;
#X obj 30 26 inlet;
#X obj 317 28 r freq;
#X text 27 8 Receive a number;
#X obj 29 131 *~;
#X floatatom 158 85 5 0.9 1 2 Max_Amp - -;
#X text 315 11 General frequency;
#X obj 86 148 / 1;
#X obj 29 222 *~;
#X obj 86 190 sig~;
#X obj 158 22 loadbang;
#X msg 158 50 1;
#X obj 30 97 osc~;
#X obj 318 83 osc~;
#X floatatom 86 170 5 0 0 0 - - -;
#X floatatom 86 57 5 0 0 0 - - -;
#X obj 86 84 t b f;
#X obj 30 66 sig~;
#X obj 317 56 sig~;
#X obj 29 252 send~ sig;
#X connect 0 0 14 0;
#X connect 0 0 16 0;
#X connect 1 0 17 0;
#X connect 3 0 7 0;
#X connect 4 0 6 0;
#X connect 6 0 13 0;
#X connect 7 0 18 0;
#X connect 8 0 7 1;
#X connect 9 0 10 0;
#X connect 10 0 4 0;
#X connect 11 0 3 0;
#X connect 12 0 3 1;
#X connect 13 0 8 0;
#X connect 14 0 15 0;
#X connect 15 0 6 0;
#X connect 15 1 6 1;
#X connect 16 0 11 0;
#X connect 17 0 12 0;
#X restore 95 108 pd osc;
#X floatatom 138 85 5 0 0 0 - - -;
#N canvas 649 332 450 300 osc 0;
#X obj 30 26 inlet;
#X obj 317 28 r freq;
#X text 27 8 Receive a number;
#X obj 29 131 *~;
#X floatatom 158 85 5 0.9 1 2 Max_Amp - -;
#X text 315 11 General frequency;
#X obj 86 148 / 1;
#X obj 29 222 *~;
#X obj 86 190 sig~;
#X obj 158 22 loadbang;
#X msg 158 50 1;
#X obj 30 97 osc~;
#X obj 318 83 osc~;
#X floatatom 86 170 5 0 0 0 - - -;
#X floatatom 86 57 5 0 0 0 - - -;
#X obj 86 84 t b f;
#X obj 30 66 sig~;
#X obj 317 56 sig~;
#X obj 29 252 send~ sig;
#X connect 0 0 14 0;
#X connect 0 0 16 0;
#X connect 1 0 17 0;
#X connect 3 0 7 0;
#X connect 4 0 6 0;
#X connect 6 0 13 0;
#X connect 7 0 18 0;
#X connect 8 0 7 1;
#X connect 9 0 10 0;
#X connect 10 0 4 0;
#X connect 11 0 3 0;
#X connect 12 0 3 1;
#X connect 13 0 8 0;
#X connect 14 0 15 0;
#X connect 15 0 6 0;
#X connect 15 1 6 1;
#X connect 16 0 11 0;
#X connect 17 0 12 0;
#X restore 138 108 pd osc;
#X floatatom 181 85 5 0 0 0 - - -;
#N canvas 652 319 450 300 osc 0;
#X obj 30 26 inlet;
#X obj 317 28 r freq;
#X text 27 8 Receive a number;
#X obj 29 131 *~;
#X floatatom 158 85 5 0.9 1 2 Max_Amp - -;
#X text 315 11 General frequency;
#X obj 86 148 / 1;
#X obj 29 222 *~;
#X obj 86 190 sig~;
#X obj 158 22 loadbang;
#X msg 158 50 1;
#X obj 30 97 osc~;
#X obj 318 83 osc~;
#X floatatom 86 170 5 0 0 0 - - -;
#X floatatom 86 57 5 0 0 0 - - -;
#X obj 86 84 t b f;
#X obj 30 66 sig~;
#X obj 317 56 sig~;
#X obj 29 252 send~ sig;
#X connect 0 0 14 0;
#X connect 0 0 16 0;
#X connect 1 0 17 0;
#X connect 3 0 7 0;
#X connect 4 0 6 0;
#X connect 6 0 13 0;
#X connect 7 0 18 0;
#X connect 8 0 7 1;
#X connect 9 0 10 0;
#X connect 10 0 4 0;
#X connect 11 0 3 0;
#X connect 12 0 3 1;
#X connect 13 0 8 0;
#X connect 14 0 15 0;
#X connect 15 0 6 0;
#X connect 15 1 6 1;
#X connect 16 0 11 0;
#X connect 17 0 12 0;
#X restore 181 108 pd osc;
#X floatatom 224 85 5 0 0 0 - - -;
#N canvas 649 332 450 300 osc 0;
#X obj 30 26 inlet;
#X obj 317 28 r freq;
#X text 27 8 Receive a number;
#X obj 29 131 *~;
#X floatatom 158 85 5 0.9 1 2 Max_Amp - -;
#X text 315 11 General frequency;
#X obj 86 148 / 1;
#X obj 29 222 *~;
#X obj 86 190 sig~;
#X obj 158 22 loadbang;
#X msg 158 50 1;
#X obj 30 97 osc~;
#X obj 318 83 osc~;
#X floatatom 86 170 5 0 0 0 - - -;
#X floatatom 86 57 5 0 0 0 - - -;
#X obj 86 84 t b f;
#X obj 30 66 sig~;
#X obj 317 56 sig~;
#X obj 29 252 send~ sig;
#X connect 0 0 14 0;
#X connect 0 0 16 0;
#X connect 1 0 17 0;
#X connect 3 0 7 0;
#X connect 4 0 6 0;
#X connect 6 0 13 0;
#X connect 7 0 18 0;
#X connect 8 0 7 1;
#X connect 9 0 10 0;
#X connect 10 0 4 0;
#X connect 11 0 3 0;
#X connect 12 0 3 1;
#X connect 13 0 8 0;
#X connect 14 0 15 0;
#X connect 15 0 6 0;
#X connect 15 1 6 1;
#X connect 16 0 11 0;
#X connect 17 0 12 0;
#X restore 224 108 pd osc;
#X floatatom 267 85 5 0 0 0 - - -;
#N canvas 649 332 450 300 osc 0;
#X obj 30 26 inlet;
#X obj 317 28 r freq;
#X text 27 8 Receive a number;
#X obj 29 131 *~;
#X floatatom 158 85 5 0.9 1 2 Max_Amp - -;
#X text 315 11 General frequency;
#X obj 86 148 / 1;
#X obj 29 222 *~;
#X obj 86 190 sig~;
#X obj 158 22 loadbang;
#X msg 158 50 1;
#X obj 30 97 osc~;
#X obj 318 83 osc~;
#X floatatom 86 170 5 0 0 0 - - -;
#X floatatom 86 57 5 0 0 0 - - -;
#X obj 86 84 t b f;
#X obj 30 66 sig~;
#X obj 317 56 sig~;
#X obj 29 252 send~ sig;
#X connect 0 0 14 0;
#X connect 0 0 16 0;
#X connect 1 0 17 0;
#X connect 3 0 7 0;
#X connect 4 0 6 0;
#X connect 6 0 13 0;
#X connect 7 0 18 0;
#X connect 8 0 7 1;
#X connect 9 0 10 0;
#X connect 10 0 4 0;
#X connect 11 0 3 0;
#X connect 12 0 3 1;
#X connect 13 0 8 0;
#X connect 14 0 15 0;
#X connect 15 0 6 0;
#X connect 15 1 6 1;
#X connect 16 0 11 0;
#X connect 17 0 12 0;
#X restore 267 108 pd osc;
#X floatatom 310 85 5 0 0 0 - - -;
#N canvas 649 332 450 300 osc 0;
#X obj 30 26 inlet;
#X obj 317 28 r freq;
#X text 27 8 Receive a number;
#X obj 29 131 *~;
#X floatatom 158 85 5 0.9 1 2 Max_Amp - -;
#X text 315 11 General frequency;
#X obj 86 148 / 1;
#X obj 29 222 *~;
#X obj 86 190 sig~;
#X obj 158 22 loadbang;
#X msg 158 50 1;
#X obj 30 97 osc~;
#X obj 318 83 osc~;
#X floatatom 86 170 5 0 0 0 - - -;
#X floatatom 86 57 5 0 0 0 - - -;
#X obj 86 84 t b f;
#X obj 30 66 sig~;
#X obj 317 56 sig~;
#X obj 29 252 send~ sig;
#X connect 0 0 14 0;
#X connect 0 0 16 0;
#X connect 1 0 17 0;
#X connect 3 0 7 0;
#X connect 4 0 6 0;
#X connect 6 0 13 0;
#X connect 7 0 18 0;
#X connect 8 0 7 1;
#X connect 9 0 10 0;
#X connect 10 0 4 0;
#X connect 11 0 3 0;
#X connect 12 0 3 1;
#X connect 13 0 8 0;
#X connect 14 0 15 0;
#X connect 15 0 6 0;
#X connect 15 1 6 1;
#X connect 16 0 11 0;
#X connect 17 0 12 0;
#X restore 310 108 pd osc;
#X floatatom 10 130 5 0 0 0 - - -;
#N canvas 652 319 450 300 osc 0;
#X obj 30 26 inlet;
#X obj 317 28 r freq;
#X text 27 8 Receive a number;
#X obj 29 131 *~;
#X floatatom 158 85 5 0.9 1 2 Max_Amp - -;
#X text 315 11 General frequency;
#X obj 86 148 / 1;
#X obj 29 222 *~;
#X obj 86 190 sig~;
#X obj 158 22 loadbang;
#X msg 158 50 1;
#X obj 30 97 osc~;
#X obj 318 83 osc~;
#X floatatom 86 170 5 0 0 0 - - -;
#X floatatom 86 57 5 0 0 0 - - -;
#X obj 86 84 t b f;
#X obj 30 66 sig~;
#X obj 317 56 sig~;
#X obj 29 252 send~ sig;
#X connect 0 0 14 0;
#X connect 0 0 16 0;
#X connect 1 0 17 0;
#X connect 3 0 7 0;
#X connect 4 0 6 0;
#X connect 6 0 13 0;
#X connect 7 0 18 0;
#X connect 8 0 7 1;
#X connect 9 0 10 0;
#X connect 10 0 4 0;
#X connect 11 0 3 0;
#X connect 12 0 3 1;
#X connect 13 0 8 0;
#X connect 14 0 15 0;
#X connect 15 0 6 0;
#X connect 15 1 6 1;
#X connect 16 0 11 0;
#X connect 17 0 12 0;
#X restore 10 153 pd osc;
#X floatatom 53 130 5 0 0 0 - - -;
#N canvas 649 332 450 300 osc 0;
#X obj 30 26 inlet;
#X obj 317 28 r freq;
#X text 27 8 Receive a number;
#X obj 29 131 *~;
#X floatatom 158 85 5 0.9 1 2 Max_Amp - -;
#X text 315 11 General frequency;
#X obj 86 148 / 1;
#X obj 29 222 *~;
#X obj 86 190 sig~;
#X obj 158 22 loadbang;
#X msg 158 50 1;
#X obj 30 97 osc~;
#X obj 318 83 osc~;
#X floatatom 86 170 5 0 0 0 - - -;
#X floatatom 86 57 5 0 0 0 - - -;
#X obj 86 84 t b f;
#X obj 30 66 sig~;
#X obj 317 56 sig~;
#X obj 29 252 send~ sig;
#X connect 0 0 14 0;
#X connect 0 0 16 0;
#X connect 1 0 17 0;
#X connect 3 0 7 0;
#X connect 4 0 6 0;
#X connect 6 0 13 0;
#X connect 7 0 18 0;
#X connect 8 0 7 1;
#X connect 9 0 10 0;
#X connect 10 0 4 0;
#X connect 11 0 3 0;
#X connect 12 0 3 1;
#X connect 13 0 8 0;
#X connect 14 0 15 0;
#X connect 15 0 6 0;
#X connect 15 1 6 1;
#X connect 16 0 11 0;
#X connect 17 0 12 0;
#X restore 53 153 pd osc;
#X floatatom 96 130 5 0 0 0 - - -;
#N canvas 649 332 450 300 osc 0;
#X obj 30 26 inlet;
#X obj 317 28 r freq;
#X text 27 8 Receive a number;
#X obj 29 131 *~;
#X floatatom 158 85 5 0.9 1 2 Max_Amp - -;
#X text 315 11 General frequency;
#X obj 86 148 / 1;
#X obj 29 222 *~;
#X obj 86 190 sig~;
#X obj 158 22 loadbang;
#X msg 158 50 1;
#X obj 30 97 osc~;
#X obj 318 83 osc~;
#X floatatom 86 170 5 0 0 0 - - -;
#X floatatom 86 57 5 0 0 0 - - -;
#X obj 86 84 t b f;
#X obj 30 66 sig~;
#X obj 317 56 sig~;
#X obj 29 252 send~ sig;
#X connect 0 0 14 0;
#X connect 0 0 16 0;
#X connect 1 0 17 0;
#X connect 3 0 7 0;
#X connect 4 0 6 0;
#X connect 6 0 13 0;
#X connect 7 0 18 0;
#X connect 8 0 7 1;
#X connect 9 0 10 0;
#X connect 10 0 4 0;
#X connect 11 0 3 0;
#X connect 12 0 3 1;
#X connect 13 0 8 0;
#X connect 14 0 15 0;
#X connect 15 0 6 0;
#X connect 15 1 6 1;
#X connect 16 0 11 0;
#X connect 17 0 12 0;
#X restore 96 153 pd osc;
#X floatatom 139 130 5 0 0 0 - - -;
#N canvas 649 332 450 300 osc 0;
#X obj 30 26 inlet;
#X obj 317 28 r freq;
#X text 27 8 Receive a number;
#X obj 29 131 *~;
#X floatatom 158 85 5 0.9 1 2 Max_Amp - -;
#X text 315 11 General frequency;
#X obj 86 148 / 1;
#X obj 29 222 *~;
#X obj 86 190 sig~;
#X obj 158 22 loadbang;
#X msg 158 50 1;
#X obj 30 97 osc~;
#X obj 318 83 osc~;
#X floatatom 86 170 5 0 0 0 - - -;
#X floatatom 86 57 5 0 0 0 - - -;
#X obj 86 84 t b f;
#X obj 30 66 sig~;
#X obj 317 56 sig~;
#X obj 29 252 send~ sig;
#X connect 0 0 14 0;
#X connect 0 0 16 0;
#X connect 1 0 17 0;
#X connect 3 0 7 0;
#X connect 4 0 6 0;
#X connect 6 0 13 0;
#X connect 7 0 18 0;
#X connect 8 0 7 1;
#X connect 9 0 10 0;
#X connect 10 0 4 0;
#X connect 11 0 3 0;
#X connect 12 0 3 1;
#X connect 13 0 8 0;
#X connect 14 0 15 0;
#X connect 15 0 6 0;
#X connect 15 1 6 1;
#X connect 16 0 11 0;
#X connect 17 0 12 0;
#X restore 139 153 pd osc;
#X floatatom 182 130 5 0 0 0 - - -;
#N canvas 652 319 450 300 osc 0;
#X obj 30 26 inlet;
#X obj 317 28 r freq;
#X text 27 8 Receive a number;
#X obj 29 131 *~;
#X floatatom 158 85 5 0.9 1 2 Max_Amp - -;
#X text 315 11 General frequency;
#X obj 86 148 / 1;
#X obj 29 222 *~;
#X obj 86 190 sig~;
#X obj 158 22 loadbang;
#X msg 158 50 1;
#X obj 30 97 osc~;
#X obj 318 83 osc~;
#X floatatom 86 170 5 0 0 0 - - -;
#X floatatom 86 57 5 0 0 0 - - -;
#X obj 86 84 t b f;
#X obj 30 66 sig~;
#X obj 317 56 sig~;
#X obj 29 252 send~ sig;
#X connect 0 0 14 0;
#X connect 0 0 16 0;
#X connect 1 0 17 0;
#X connect 3 0 7 0;
#X connect 4 0 6 0;
#X connect 6 0 13 0;
#X connect 7 0 18 0;
#X connect 8 0 7 1;
#X connect 9 0 10 0;
#X connect 10 0 4 0;
#X connect 11 0 3 0;
#X connect 12 0 3 1;
#X connect 13 0 8 0;
#X connect 14 0 15 0;
#X connect 15 0 6 0;
#X connect 15 1 6 1;
#X connect 16 0 11 0;
#X connect 17 0 12 0;
#X restore 182 153 pd osc;
#X floatatom 225 130 5 0 0 0 - - -;
#N canvas 649 332 450 300 osc 0;
#X obj 30 26 inlet;
#X obj 317 28 r freq;
#X text 27 8 Receive a number;
#X obj 29 131 *~;
#X floatatom 158 85 5 0.9 1 2 Max_Amp - -;
#X text 315 11 General frequency;
#X obj 86 148 / 1;
#X obj 29 222 *~;
#X obj 86 190 sig~;
#X obj 158 22 loadbang;
#X msg 158 50 1;
#X obj 30 97 osc~;
#X obj 318 83 osc~;
#X floatatom 86 170 5 0 0 0 - - -;
#X floatatom 86 57 5 0 0 0 - - -;
#X obj 86 84 t b f;
#X obj 30 66 sig~;
#X obj 317 56 sig~;
#X obj 29 252 send~ sig;
#X connect 0 0 14 0;
#X connect 0 0 16 0;
#X connect 1 0 17 0;
#X connect 3 0 7 0;
#X connect 4 0 6 0;
#X connect 6 0 13 0;
#X connect 7 0 18 0;
#X connect 8 0 7 1;
#X connect 9 0 10 0;
#X connect 10 0 4 0;
#X connect 11 0 3 0;
#X connect 12 0 3 1;
#X connect 13 0 8 0;
#X connect 14 0 15 0;
#X connect 15 0 6 0;
#X connect 15 1 6 1;
#X connect 16 0 11 0;
#X connect 17 0 12 0;
#X restore 225 153 pd osc;
#X floatatom 268 130 5 0 0 0 - - -;
#N canvas 649 332 450 300 osc 0;
#X obj 30 26 inlet;
#X obj 317 28 r freq;
#X text 27 8 Receive a number;
#X obj 29 131 *~;
#X floatatom 158 85 5 0.9 1 2 Max_Amp - -;
#X text 315 11 General frequency;
#X obj 86 148 / 1;
#X obj 29 222 *~;
#X obj 86 190 sig~;
#X obj 158 22 loadbang;
#X msg 158 50 1;
#X obj 30 97 osc~;
#X obj 318 83 osc~;
#X floatatom 86 170 5 0 0 0 - - -;
#X floatatom 86 57 5 0 0 0 - - -;
#X obj 86 84 t b f;
#X obj 30 66 sig~;
#X obj 317 56 sig~;
#X obj 29 252 send~ sig;
#X connect 0 0 14 0;
#X connect 0 0 16 0;
#X connect 1 0 17 0;
#X connect 3 0 7 0;
#X connect 4 0 6 0;
#X connect 6 0 13 0;
#X connect 7 0 18 0;
#X connect 8 0 7 1;
#X connect 9 0 10 0;
#X connect 10 0 4 0;
#X connect 11 0 3 0;
#X connect 12 0 3 1;
#X connect 13 0 8 0;
#X connect 14 0 15 0;
#X connect 15 0 6 0;
#X connect 15 1 6 1;
#X connect 16 0 11 0;
#X connect 17 0 12 0;
#X restore 268 153 pd osc;
#X floatatom 311 130 5 0 0 0 - - -;
#N canvas 649 332 450 300 osc 0;
#X obj 30 26 inlet;
#X obj 317 28 r freq;
#X text 27 8 Receive a number;
#X obj 29 131 *~;
#X floatatom 158 85 5 0.9 1 2 Max_Amp - -;
#X text 315 11 General frequency;
#X obj 86 148 / 1;
#X obj 29 222 *~;
#X obj 86 190 sig~;
#X obj 158 22 loadbang;
#X msg 158 50 1;
#X obj 30 97 osc~;
#X obj 318 83 osc~;
#X floatatom 86 170 5 0 0 0 - - -;
#X floatatom 86 57 5 0 0 0 - - -;
#X obj 86 84 t b f;
#X obj 30 66 sig~;
#X obj 317 56 sig~;
#X obj 29 252 send~ sig;
#X connect 0 0 14 0;
#X connect 0 0 16 0;
#X connect 1 0 17 0;
#X connect 3 0 7 0;
#X connect 4 0 6 0;
#X connect 6 0 13 0;
#X connect 7 0 18 0;
#X connect 8 0 7 1;
#X connect 9 0 10 0;
#X connect 10 0 4 0;
#X connect 11 0 3 0;
#X connect 12 0 3 1;
#X connect 13 0 8 0;
#X connect 14 0 15 0;
#X connect 15 0 6 0;
#X connect 15 1 6 1;
#X connect 16 0 11 0;
#X connect 17 0 12 0;
#X restore 311 153 pd osc;
#X obj 23 252 receive~ sig;
#X obj 105 284;
#X obj 105 284 dac~;
#X obj 105 252 receive~ sig;
#X obj 184 284;
#X obj 184 284 dac~;
#X obj 184 252 receive~ sig;
#X obj 266 284;
#X obj 266 284 dac~;
#X obj 266 252 receive~ sig;
#X obj 22 339;
#X obj 22 339 dac~;
#X obj 22 307 receive~ sig;
#X obj 104 339;
#X obj 104 339 dac~;
#X obj 104 307 receive~ sig;
#X obj 183 339;
#X obj 183 339 dac~;
#X obj 183 307 receive~ sig;
#X obj 265 339;
#X obj 265 339 dac~;
#X obj 265 307 receive~ sig;
#X obj 20 391;
#X obj 20 391 dac~;
#X obj 20 359 receive~ sig;
#X obj 102 391;
#X obj 102 391 dac~;
#X obj 102 359 receive~ sig;
#X obj 181 391;
#X obj 181 391 dac~;
#X obj 181 359 receive~ sig;
#X obj 263 391;
#X obj 263 391 dac~;
#X obj 263 359 receive~ sig;
#X obj 19 446;
#X obj 19 446 dac~;
#X obj 19 414 receive~ sig;
#X obj 101 446;
#X obj 101 446 dac~;
#X obj 101 414 receive~ sig;
#X obj 180 446;
#X obj 180 446 dac~;
#X obj 180 414 receive~ sig;
#X obj 262 446;
#X obj 262 446 dac~;
#X obj 262 414 receive~ sig;
#X connect 0 0 1 0;
#X connect 2 0 3 0;
#X connect 4 0 2 0;
#X connect 7 0 8 0;
#X connect 9 0 10 0;
#X connect 11 0 12 0;
#X connect 13 0 14 0;
#X connect 15 0 16 0;
#X connect 17 0 18 0;
#X connect 19 0 20 0;
#X connect 21 0 22 0;
#X connect 23 0 24 0;
#X connect 25 0 26 0;
#X connect 27 0 28 0;
#X connect 29 0 30 0;
#X connect 31 0 32 0;
#X connect 33 0 34 0;
#X connect 35 0 36 0;
#X connect 37 0 38 0;
#X connect 39 0 40 0;
#X connect 41 0 42 0;
#X connect 43 0 44 0;
#X connect 45 0 46 0;
#X connect 47 0 48 0;
#X connect 49 0 50 0;
#X connect 51 0 52 0;
#X connect 53 0 54 0;
#X connect 55 0 56 0;
#X connect 57 0 58 0;
#X connect 59 0 60 0;
#X connect 61 0 62 0;
#X connect 63 0 64 0;
#X connect 65 0 66 0;
#X connect 67 0 68 0;
#X connect 69 0 6 1;
#X connect 72 0 71 1;
#X connect 75 0 74 1;
#X connect 78 0 77 1;
#X connect 81 0 80 1;
#X connect 84 0 83 1;
#X connect 87 0 86 1;
#X connect 90 0 89 1;
#X connect 93 0 92 1;
#X connect 96 0 95 1;
#X connect 99 0 98 1;
#X connect 102 0 101 1;
#X connect 105 0 104 1;
#X connect 108 0 107 1;
#X connect 111 0 110 1;
#X connect 114 0 113 1;
