{
	"patcher" : 	{
		"fileversion" : 1,
		"appversion" : 		{
			"major" : 7,
			"minor" : 0,
			"revision" : 0,
			"architecture" : "x64",
			"modernui" : 1
		}
,
		"rect" : [ 84.0, 129.0, 2036.0, 1105.0 ],
		"bglocked" : 0,
		"openinpresentation" : 0,
		"default_fontsize" : 12.0,
		"default_fontface" : 0,
		"default_fontname" : "Arial",
		"gridonopen" : 1,
		"gridsize" : [ 15.0, 15.0 ],
		"gridsnaponopen" : 1,
		"objectsnaponopen" : 1,
		"statusbarvisible" : 2,
		"toolbarvisible" : 1,
		"lefttoolbarpinned" : 0,
		"toptoolbarpinned" : 0,
		"righttoolbarpinned" : 0,
		"bottomtoolbarpinned" : 0,
		"toolbars_unpinned_last_save" : 0,
		"tallnewobj" : 0,
		"boxanimatetime" : 200,
		"enablehscroll" : 1,
		"enablevscroll" : 1,
		"devicewidth" : 0.0,
		"description" : "",
		"digest" : "",
		"tags" : "",
		"style" : "",
		"subpatcher_template" : "",
		"boxes" : [ 			{
				"box" : 				{
					"id" : "obj-21",
					"maxclass" : "newobj",
					"numinlets" : 2,
					"numoutlets" : 1,
					"outlettype" : [ "int" ],
					"patching_rect" : [ 1021.0, 381.0, 34.0, 22.0 ],
					"style" : "",
					"text" : "+ 60"
				}

			}
, 			{
				"box" : 				{
					"id" : "obj-16",
					"maxclass" : "newobj",
					"numinlets" : 3,
					"numoutlets" : 0,
					"patching_rect" : [ 1025.0, 492.5, 51.0, 22.0 ],
					"style" : "",
					"text" : "noteout"
				}

			}
, 			{
				"box" : 				{
					"id" : "obj-15",
					"maxclass" : "newobj",
					"numinlets" : 3,
					"numoutlets" : 2,
					"outlettype" : [ "float", "float" ],
					"patching_rect" : [ 1021.0, 439.0, 110.0, 22.0 ],
					"style" : "",
					"text" : "makenote 127 500"
				}

			}
, 			{
				"box" : 				{
					"coll_data" : 					{
						"count" : 16,
						"data" : [ 							{
								"key" : 97,
								"value" : [ 0 ]
							}
, 							{
								"key" : 119,
								"value" : [ 1 ]
							}
, 							{
								"key" : 115,
								"value" : [ 2 ]
							}
, 							{
								"key" : 101,
								"value" : [ 3 ]
							}
, 							{
								"key" : 100,
								"value" : [ 4 ]
							}
, 							{
								"key" : 102,
								"value" : [ 5 ]
							}
, 							{
								"key" : 116,
								"value" : [ 6 ]
							}
, 							{
								"key" : 103,
								"value" : [ 7 ]
							}
, 							{
								"key" : 121,
								"value" : [ 8 ]
							}
, 							{
								"key" : 104,
								"value" : [ 9 ]
							}
, 							{
								"key" : 117,
								"value" : [ 10 ]
							}
, 							{
								"key" : 106,
								"value" : [ 11 ]
							}
, 							{
								"key" : 107,
								"value" : [ 12 ]
							}
, 							{
								"key" : 111,
								"value" : [ 13 ]
							}
, 							{
								"key" : 108,
								"value" : [ 14 ]
							}
, 							{
								"key" : 112,
								"value" : [ 15 ]
							}
 ]
					}
,
					"id" : "obj-14",
					"maxclass" : "newobj",
					"numinlets" : 1,
					"numoutlets" : 4,
					"outlettype" : [ "", "", "", "" ],
					"patching_rect" : [ 1021.0, 312.0, 50.5, 22.0 ],
					"saved_object_attributes" : 					{
						"embed" : 1
					}
,
					"style" : "",
					"text" : "coll"
				}

			}
, 			{
				"box" : 				{
					"id" : "obj-9",
					"maxclass" : "number",
					"numinlets" : 1,
					"numoutlets" : 2,
					"outlettype" : [ "", "bang" ],
					"parameter_enable" : 0,
					"patching_rect" : [ 1021.0, 273.0, 50.0, 22.0 ],
					"style" : ""
				}

			}
, 			{
				"box" : 				{
					"id" : "obj-7",
					"maxclass" : "message",
					"numinlets" : 2,
					"numoutlets" : 1,
					"outlettype" : [ "" ],
					"patching_rect" : [ 739.0, 496.0, 50.0, 22.0 ],
					"style" : "",
					"text" : "2"
				}

			}
, 			{
				"box" : 				{
					"id" : "obj-5",
					"maxclass" : "number",
					"numinlets" : 1,
					"numoutlets" : 2,
					"outlettype" : [ "", "bang" ],
					"parameter_enable" : 0,
					"patching_rect" : [ 739.0, 324.5, 50.0, 22.0 ],
					"style" : ""
				}

			}
, 			{
				"box" : 				{
					"id" : "obj-2",
					"maxclass" : "newobj",
					"numinlets" : 0,
					"numoutlets" : 4,
					"outlettype" : [ "int", "int", "int", "int" ],
					"patching_rect" : [ 1021.0, 234.5, 50.5, 22.0 ],
					"style" : "",
					"text" : "key"
				}

			}
, 			{
				"box" : 				{
					"coll_data" : 					{
						"count" : 39,
						"data" : [ 							{
								"key" : 0,
								"value" : [ 1 ]
							}
, 							{
								"key" : 1,
								"value" : [ 1 ]
							}
, 							{
								"key" : 2,
								"value" : [ 2 ]
							}
, 							{
								"key" : 3,
								"value" : [ 3 ]
							}
, 							{
								"key" : 4,
								"value" : [ 5 ]
							}
, 							{
								"key" : 5,
								"value" : [ 8 ]
							}
, 							{
								"key" : 6,
								"value" : [ 13 ]
							}
, 							{
								"key" : 7,
								"value" : [ 21 ]
							}
, 							{
								"key" : 8,
								"value" : [ 34 ]
							}
, 							{
								"key" : 9,
								"value" : [ 55 ]
							}
, 							{
								"key" : 10,
								"value" : [ 89 ]
							}
, 							{
								"key" : 11,
								"value" : [ 144 ]
							}
, 							{
								"key" : 12,
								"value" : [ 233 ]
							}
, 							{
								"key" : 13,
								"value" : [ 377 ]
							}
, 							{
								"key" : 14,
								"value" : [ 610 ]
							}
, 							{
								"key" : 15,
								"value" : [ 987 ]
							}
, 							{
								"key" : 16,
								"value" : [ 1597 ]
							}
, 							{
								"key" : 17,
								"value" : [ 2584 ]
							}
, 							{
								"key" : 18,
								"value" : [ 4181 ]
							}
, 							{
								"key" : 19,
								"value" : [ 6765 ]
							}
, 							{
								"key" : 20,
								"value" : [ 10946 ]
							}
, 							{
								"key" : 21,
								"value" : [ 17711 ]
							}
, 							{
								"key" : 22,
								"value" : [ 28657 ]
							}
, 							{
								"key" : 23,
								"value" : [ 46368 ]
							}
, 							{
								"key" : 24,
								"value" : [ 75025 ]
							}
, 							{
								"key" : 25,
								"value" : [ 121393 ]
							}
, 							{
								"key" : 26,
								"value" : [ 196418 ]
							}
, 							{
								"key" : 27,
								"value" : [ 317811 ]
							}
, 							{
								"key" : 28,
								"value" : [ 514229 ]
							}
, 							{
								"key" : 29,
								"value" : [ 832040 ]
							}
, 							{
								"key" : 30,
								"value" : [ 1346269 ]
							}
, 							{
								"key" : 31,
								"value" : [ 2178309 ]
							}
, 							{
								"key" : 32,
								"value" : [ 3524578 ]
							}
, 							{
								"key" : 33,
								"value" : [ 5702887 ]
							}
, 							{
								"key" : 34,
								"value" : [ 9227465 ]
							}
, 							{
								"key" : 35,
								"value" : [ 14930352 ]
							}
, 							{
								"key" : 36,
								"value" : [ 24157817 ]
							}
, 							{
								"key" : 37,
								"value" : [ 39088169 ]
							}
, 							{
								"key" : 38,
								"value" : [ 63245986 ]
							}
 ]
					}
,
					"id" : "obj-1",
					"maxclass" : "newobj",
					"numinlets" : 1,
					"numoutlets" : 4,
					"outlettype" : [ "", "", "", "" ],
					"patching_rect" : [ 739.0, 363.0, 50.5, 22.0 ],
					"saved_object_attributes" : 					{
						"embed" : 1
					}
,
					"style" : "",
					"text" : "coll"
				}

			}
 ],
		"lines" : [ 			{
				"patchline" : 				{
					"destination" : [ "obj-7", 1 ],
					"disabled" : 0,
					"hidden" : 0,
					"source" : [ "obj-1", 0 ]
				}

			}
, 			{
				"patchline" : 				{
					"destination" : [ "obj-21", 0 ],
					"disabled" : 0,
					"hidden" : 0,
					"source" : [ "obj-14", 0 ]
				}

			}
, 			{
				"patchline" : 				{
					"destination" : [ "obj-16", 1 ],
					"disabled" : 0,
					"hidden" : 0,
					"source" : [ "obj-15", 1 ]
				}

			}
, 			{
				"patchline" : 				{
					"destination" : [ "obj-16", 0 ],
					"disabled" : 0,
					"hidden" : 0,
					"source" : [ "obj-15", 0 ]
				}

			}
, 			{
				"patchline" : 				{
					"destination" : [ "obj-9", 0 ],
					"disabled" : 0,
					"hidden" : 0,
					"source" : [ "obj-2", 0 ]
				}

			}
, 			{
				"patchline" : 				{
					"destination" : [ "obj-15", 0 ],
					"disabled" : 0,
					"hidden" : 0,
					"source" : [ "obj-21", 0 ]
				}

			}
, 			{
				"patchline" : 				{
					"destination" : [ "obj-1", 0 ],
					"disabled" : 0,
					"hidden" : 0,
					"source" : [ "obj-5", 0 ]
				}

			}
, 			{
				"patchline" : 				{
					"destination" : [ "obj-14", 0 ],
					"disabled" : 0,
					"hidden" : 0,
					"source" : [ "obj-9", 0 ]
				}

			}
 ],
		"dependency_cache" : [  ],
		"embedsnapshot" : 0
	}

}
