{
	"patcher" : 	{
		"fileversion" : 1,
		"appversion" : 		{
			"major" : 7,
			"minor" : 1,
			"revision" : 0,
			"architecture" : "x64",
			"modernui" : 1
		}
,
		"rect" : [ 34.0, 79.0, 1372.0, 783.0 ],
		"bglocked" : 0,
		"openinpresentation" : 0,
		"default_fontsize" : 12.0,
		"default_fontface" : 0,
		"default_fontname" : "Arial",
		"gridonopen" : 1,
		"gridsize" : [ 15.0, 15.0 ],
		"gridsnaponopen" : 1,
		"objectsnaponopen" : 1,
		"statusbarvisible" : 2,
		"toolbarvisible" : 1,
		"lefttoolbarpinned" : 0,
		"toptoolbarpinned" : 0,
		"righttoolbarpinned" : 0,
		"bottomtoolbarpinned" : 0,
		"toolbars_unpinned_last_save" : 0,
		"tallnewobj" : 0,
		"boxanimatetime" : 200,
		"enablehscroll" : 1,
		"enablevscroll" : 1,
		"devicewidth" : 0.0,
		"description" : "",
		"digest" : "",
		"tags" : "",
		"style" : "",
		"subpatcher_template" : "",
		"boxes" : [ 			{
				"box" : 				{
					"fontsize" : 23.38778,
					"format" : 6,
					"id" : "obj-14",
					"maxclass" : "flonum",
					"numinlets" : 1,
					"numoutlets" : 2,
					"outlettype" : [ "", "bang" ],
					"parameter_enable" : 0,
					"patching_rect" : [ 776.0, 30.465117, 80.0, 35.0 ],
					"style" : ""
				}

			}
, 			{
				"box" : 				{
					"bgcolor" : [ 0.952941, 0.564706, 0.098039, 1.0 ],
					"color" : [ 0.0, 0.0, 0.0, 1.0 ],
					"fontsize" : 37.194567,
					"id" : "obj-6",
					"maxclass" : "newobj",
					"numinlets" : 6,
					"numoutlets" : 1,
					"outlettype" : [ "signal" ],
					"patching_rect" : [ 877.0, 97.911057, 338.0, 50.0 ],
					"style" : "",
					"text" : "scale~ -1. 1. 0.1 0.9",
					"textcolor" : [ 0.239216, 0.254902, 0.278431, 1.0 ]
				}

			}
, 			{
				"box" : 				{
					"bgcolor" : [ 0.952941, 0.564706, 0.098039, 1.0 ],
					"color" : [ 0.0, 0.0, 0.0, 1.0 ],
					"fontsize" : 37.194567,
					"id" : "obj-2",
					"maxclass" : "newobj",
					"numinlets" : 2,
					"numoutlets" : 1,
					"outlettype" : [ "signal" ],
					"patching_rect" : [ 877.0, 28.911057, 148.0, 50.0 ],
					"style" : "",
					"text" : "cycle~ 1",
					"textcolor" : [ 0.239216, 0.254902, 0.278431, 1.0 ]
				}

			}
, 			{
				"box" : 				{
					"bgcolor" : [ 0.952941, 0.564706, 0.098039, 1.0 ],
					"color" : [ 0.0, 0.0, 0.0, 1.0 ],
					"fontsize" : 26.994905,
					"id" : "obj-73",
					"maxclass" : "newobj",
					"numinlets" : 2,
					"numoutlets" : 1,
					"outlettype" : [ "int" ],
					"patching_rect" : [ 44.0, 139.483871, 55.0, 39.0 ],
					"style" : "",
					"text" : "- 22",
					"textcolor" : [ 0.0, 0.0, 0.0, 1.0 ]
				}

			}
, 			{
				"box" : 				{
					"bgcolor" : [ 0.952941, 0.564706, 0.098039, 1.0 ],
					"color" : [ 0.0, 0.0, 0.0, 1.0 ],
					"fontsize" : 22.29533,
					"id" : "obj-72",
					"linecount" : 2,
					"maxclass" : "newobj",
					"numinlets" : 1,
					"numoutlets" : 1,
					"outlettype" : [ "" ],
					"patching_rect" : [ 44.0, 76.465118, 212.0, 58.0 ],
					"style" : "",
					"text" : "if $i1 > 21 && $i1 < 30 then $i1",
					"textcolor" : [ 0.0, 0.0, 0.0, 1.0 ]
				}

			}
, 			{
				"box" : 				{
					"bgcolor" : [ 0.960784, 0.827451, 0.156863, 1.0 ],
					"color" : [ 0.0, 0.0, 0.0, 1.0 ],
					"fontsize" : 34.535065,
					"id" : "obj-65",
					"maxclass" : "newobj",
					"numinlets" : 1,
					"numoutlets" : 3,
					"outlettype" : [ "int", "int", "int" ],
					"patching_rect" : [ 81.0, 14.859985, 72.0, 47.0 ],
					"style" : "",
					"text" : "ctlin",
					"textcolor" : [ 0.239216, 0.254902, 0.278431, 1.0 ]
				}

			}
, 			{
				"box" : 				{
					"bubble" : 1,
					"fontsize" : 14.226241,
					"id" : "obj-64",
					"maxclass" : "comment",
					"numinlets" : 1,
					"numoutlets" : 0,
					"patching_rect" : [ 653.0, 589.0, 192.0, 26.0 ],
					"style" : "",
					"text" : "azul: envolvente"
				}

			}
, 			{
				"box" : 				{
					"bubble" : 1,
					"fontsize" : 14.226241,
					"id" : "obj-63",
					"maxclass" : "comment",
					"numinlets" : 1,
					"numoutlets" : 0,
					"patching_rect" : [ 825.0, 385.13559, 192.0, 26.0 ],
					"style" : "",
					"text" : "verde: LFO"
				}

			}
, 			{
				"box" : 				{
					"bubble" : 1,
					"fontsize" : 14.226241,
					"id" : "obj-62",
					"maxclass" : "comment",
					"numinlets" : 1,
					"numoutlets" : 0,
					"patching_rect" : [ 926.0, 193.621582, 192.0, 26.0 ],
					"style" : "",
					"text" : "naranja: formas de onda"
				}

			}
, 			{
				"box" : 				{
					"bubble" : 1,
					"fontsize" : 14.226241,
					"id" : "obj-61",
					"maxclass" : "comment",
					"numinlets" : 1,
					"numoutlets" : 0,
					"patching_rect" : [ 588.0, 45.465118, 124.0, 26.0 ],
					"style" : "",
					"text" : "amarillo: MIDI"
				}

			}
, 			{
				"box" : 				{
					"bgcolor" : [ 0.439216, 0.74902, 0.254902, 1.0 ],
					"fontsize" : 27.539828,
					"format" : 6,
					"id" : "obj-58",
					"maxclass" : "flonum",
					"numinlets" : 1,
					"numoutlets" : 2,
					"outlettype" : [ "", "bang" ],
					"parameter_enable" : 0,
					"patching_rect" : [ 346.0, 316.859985, 89.0, 39.0 ],
					"style" : "",
					"textcolor" : [ 0.239216, 0.254902, 0.278431, 1.0 ],
					"tricolor" : [ 0.0, 0.0, 0.0, 1.0 ]
				}

			}
, 			{
				"box" : 				{
					"bgcolor" : [ 0.439216, 0.74902, 0.254902, 1.0 ],
					"color" : [ 0.0, 0.0, 0.0, 1.0 ],
					"fontsize" : 34.535065,
					"id" : "obj-56",
					"maxclass" : "newobj",
					"numinlets" : 6,
					"numoutlets" : 1,
					"outlettype" : [ "" ],
					"patching_rect" : [ 531.0, 376.859985, 283.0, 47.0 ],
					"style" : "",
					"text" : "scale 0 127 0. 10.",
					"textcolor" : [ 0.239216, 0.254902, 0.278431, 1.0 ]
				}

			}
, 			{
				"box" : 				{
					"bgcolor" : [ 0.960784, 0.827451, 0.156863, 1.0 ],
					"color" : [ 0.0, 0.0, 0.0, 1.0 ],
					"fontsize" : 34.535065,
					"id" : "obj-51",
					"maxclass" : "newobj",
					"numinlets" : 1,
					"numoutlets" : 2,
					"outlettype" : [ "int", "int" ],
					"patching_rect" : [ 531.0, 308.859985, 101.0, 47.0 ],
					"style" : "",
					"text" : "ctlin 3",
					"textcolor" : [ 0.239216, 0.254902, 0.278431, 1.0 ]
				}

			}
, 			{
				"box" : 				{
					"bgcolor" : [ 0.011765, 0.396078, 0.752941, 1.0 ],
					"color" : [ 0.0, 0.0, 0.0, 1.0 ],
					"fontsize" : 23.740763,
					"id" : "obj-46",
					"maxclass" : "newobj",
					"numinlets" : 2,
					"numoutlets" : 1,
					"outlettype" : [ "float" ],
					"patching_rect" : [ 405.999207, 523.5, 68.0, 35.0 ],
					"style" : "",
					"text" : "/ 127.",
					"textcolor" : [ 1.0, 1.0, 1.0, 1.0 ]
				}

			}
, 			{
				"box" : 				{
					"bgcolor" : [ 0.011765, 0.396078, 0.752941, 1.0 ],
					"bgcolor2" : [ 0.011765, 0.396078, 0.752941, 1.0 ],
					"bgfillcolor_angle" : 270.0,
					"bgfillcolor_autogradient" : 0.0,
					"bgfillcolor_color" : [ 0.290196, 0.309804, 0.301961, 1.0 ],
					"bgfillcolor_color1" : [ 0.011765, 0.396078, 0.752941, 1.0 ],
					"bgfillcolor_color2" : [ 0.011765, 0.396078, 0.752941, 1.0 ],
					"bgfillcolor_proportion" : 0.39,
					"bgfillcolor_type" : "gradient",
					"fontsize" : 18.953005,
					"gradient" : 1,
					"id" : "obj-43",
					"maxclass" : "message",
					"numinlets" : 2,
					"numoutlets" : 1,
					"outlettype" : [ "" ],
					"patching_rect" : [ 294.999207, 523.5, 40.5, 30.0 ],
					"style" : "",
					"text" : "0",
					"textcolor" : [ 1.0, 1.0, 1.0, 1.0 ]
				}

			}
, 			{
				"box" : 				{
					"bgcolor" : [ 0.011765, 0.396078, 0.752941, 1.0 ],
					"color" : [ 0.0, 0.0, 0.0, 1.0 ],
					"fontsize" : 34.535065,
					"id" : "obj-36",
					"maxclass" : "newobj",
					"numinlets" : 2,
					"numoutlets" : 2,
					"outlettype" : [ "bang", "" ],
					"patching_rect" : [ 294.999207, 468.13559, 130.0, 47.0 ],
					"style" : "",
					"text" : "select 0",
					"textcolor" : [ 1.0, 1.0, 1.0, 1.0 ]
				}

			}
, 			{
				"box" : 				{
					"bgcolor" : [ 0.011765, 0.396078, 0.752941, 1.0 ],
					"color" : [ 0.0, 0.0, 0.0, 1.0 ],
					"fontsize" : 36.383908,
					"id" : "obj-26",
					"maxclass" : "newobj",
					"numinlets" : 5,
					"numoutlets" : 4,
					"outlettype" : [ "signal", "signal", "", "" ],
					"patching_rect" : [ 294.999207, 577.5, 355.0, 49.0 ],
					"style" : "",
					"text" : "adsr~ 100 50 0.5 200",
					"textcolor" : [ 1.0, 1.0, 1.0, 1.0 ]
				}

			}
, 			{
				"box" : 				{
					"bgcolor" : [ 0.011765, 0.396078, 0.752941, 1.0 ],
					"color" : [ 0.0, 0.0, 0.0, 1.0 ],
					"fontsize" : 36.383908,
					"id" : "obj-25",
					"maxclass" : "newobj",
					"numinlets" : 2,
					"numoutlets" : 1,
					"outlettype" : [ "signal" ],
					"patching_rect" : [ 117.0, 468.13559, 46.0, 49.0 ],
					"style" : "",
					"text" : "*~",
					"textcolor" : [ 1.0, 1.0, 1.0, 1.0 ]
				}

			}
, 			{
				"box" : 				{
					"bgcolor" : [ 0.960784, 0.827451, 0.156863, 1.0 ],
					"color" : [ 0.0, 0.0, 0.0, 1.0 ],
					"fontsize" : 34.535065,
					"id" : "obj-24",
					"maxclass" : "newobj",
					"numinlets" : 1,
					"numoutlets" : 1,
					"outlettype" : [ "" ],
					"patching_rect" : [ 346.0, 87.465118, 78.0, 47.0 ],
					"style" : "",
					"text" : "mtof",
					"textcolor" : [ 0.0, 0.0, 0.0, 1.0 ]
				}

			}
, 			{
				"box" : 				{
					"bgcolor" : [ 0.960784, 0.827451, 0.156863, 1.0 ],
					"color" : [ 0.0, 0.0, 0.0, 1.0 ],
					"fontsize" : 34.535065,
					"id" : "obj-21",
					"maxclass" : "newobj",
					"numinlets" : 1,
					"numoutlets" : 3,
					"outlettype" : [ "int", "int", "int" ],
					"patching_rect" : [ 346.0, 24.465117, 229.999207, 47.0 ],
					"style" : "",
					"text" : "notein",
					"textcolor" : [ 0.0, 0.0, 0.0, 1.0 ]
				}

			}
, 			{
				"box" : 				{
					"bgcolor" : [ 0.439216, 0.74902, 0.254902, 1.0 ],
					"color" : [ 0.0, 0.0, 0.0, 1.0 ],
					"fontsize" : 36.383908,
					"id" : "obj-18",
					"maxclass" : "newobj",
					"numinlets" : 2,
					"numoutlets" : 1,
					"outlettype" : [ "signal" ],
					"patching_rect" : [ 346.0, 380.13559, 145.0, 49.0 ],
					"style" : "",
					"text" : "cycle~ 2",
					"textcolor" : [ 0.239216, 0.254902, 0.278431, 1.0 ]
				}

			}
, 			{
				"box" : 				{
					"bgcolor" : [ 0.439216, 0.74902, 0.254902, 1.0 ],
					"color" : [ 0.0, 0.0, 0.0, 1.0 ],
					"fontsize" : 36.383908,
					"id" : "obj-17",
					"maxclass" : "newobj",
					"numinlets" : 2,
					"numoutlets" : 1,
					"outlettype" : [ "signal" ],
					"patching_rect" : [ 117.0, 385.13559, 46.0, 49.0 ],
					"style" : "",
					"text" : "*~",
					"textcolor" : [ 0.239216, 0.254902, 0.278431, 1.0 ]
				}

			}
, 			{
				"box" : 				{
					"bgcolor" : [ 0.952941, 0.564706, 0.098039, 1.0 ],
					"color" : [ 0.0, 0.0, 0.0, 1.0 ],
					"fontsize" : 14.95608,
					"id" : "obj-16",
					"maxclass" : "newobj",
					"numinlets" : 2,
					"numoutlets" : 1,
					"outlettype" : [ "int" ],
					"patching_rect" : [ 29.0, 446.88559, 34.5, 25.0 ],
					"style" : "",
					"text" : "+ 1",
					"textcolor" : [ 0.239216, 0.254902, 0.278431, 1.0 ]
				}

			}
, 			{
				"box" : 				{
					"activecolor" : [ 0.0, 0.0, 0.0, 1.0 ],
					"bgcolor" : [ 0.952941, 0.564706, 0.098039, 1.0 ],
					"disabled" : [ 0, 0, 0, 0, 0 ],
					"elementcolor" : [ 0.37684, 0.398617, 0.461834, 1.0 ],
					"id" : "obj-15",
					"itemtype" : 0,
					"maxclass" : "radiogroup",
					"numinlets" : 1,
					"numoutlets" : 1,
					"offset" : 29,
					"outlettype" : [ "" ],
					"parameter_enable" : 0,
					"patching_rect" : [ 29.0, 284.75, 18.0, 147.0 ],
					"size" : 5,
					"style" : "",
					"value" : 2
				}

			}
, 			{
				"box" : 				{
					"bgcolor" : [ 0.952941, 0.564706, 0.098039, 1.0 ],
					"color" : [ 0.0, 0.0, 0.0, 1.0 ],
					"fontsize" : 36.383908,
					"id" : "obj-12",
					"maxclass" : "newobj",
					"numinlets" : 6,
					"numoutlets" : 1,
					"outlettype" : [ "signal" ],
					"patching_rect" : [ 117.0, 284.75, 198.0, 49.0 ],
					"style" : "",
					"text" : "selector~ 5",
					"textcolor" : [ 0.239216, 0.254902, 0.278431, 1.0 ]
				}

			}
, 			{
				"box" : 				{
					"bgcolor" : [ 0.952941, 0.564706, 0.098039, 1.0 ],
					"color" : [ 0.0, 0.0, 0.0, 1.0 ],
					"fontsize" : 37.194567,
					"id" : "obj-11",
					"maxclass" : "newobj",
					"numinlets" : 1,
					"numoutlets" : 1,
					"outlettype" : [ "signal" ],
					"patching_rect" : [ 794.281067, 181.621582, 124.718925, 50.0 ],
					"style" : "",
					"text" : "noise~",
					"textcolor" : [ 0.239216, 0.254902, 0.278431, 1.0 ]
				}

			}
, 			{
				"box" : 				{
					"bgcolor" : [ 0.952941, 0.564706, 0.098039, 1.0 ],
					"color" : [ 0.0, 0.0, 0.0, 1.0 ],
					"fontsize" : 37.194567,
					"id" : "obj-10",
					"maxclass" : "newobj",
					"numinlets" : 3,
					"numoutlets" : 1,
					"outlettype" : [ "signal" ],
					"patching_rect" : [ 637.673767, 181.621582, 139.600159, 50.0 ],
					"style" : "",
					"text" : "tri~ 400",
					"textcolor" : [ 0.239216, 0.254902, 0.278431, 1.0 ]
				}

			}
, 			{
				"box" : 				{
					"bgcolor" : [ 0.952941, 0.564706, 0.098039, 1.0 ],
					"color" : [ 0.0, 0.0, 0.0, 1.0 ],
					"fontsize" : 37.194567,
					"id" : "obj-9",
					"maxclass" : "newobj",
					"numinlets" : 3,
					"numoutlets" : 1,
					"outlettype" : [ "signal" ],
					"patching_rect" : [ 445.63501, 181.621582, 172.905777, 50.0 ],
					"style" : "",
					"text" : "rect~ 400",
					"textcolor" : [ 0.239216, 0.254902, 0.278431, 1.0 ]
				}

			}
, 			{
				"box" : 				{
					"bgcolor" : [ 0.952941, 0.564706, 0.098039, 1.0 ],
					"color" : [ 0.0, 0.0, 0.0, 1.0 ],
					"fontsize" : 37.194567,
					"id" : "obj-8",
					"maxclass" : "newobj",
					"numinlets" : 2,
					"numoutlets" : 1,
					"outlettype" : [ "signal" ],
					"patching_rect" : [ 250.761673, 181.621582, 177.157562, 50.0 ],
					"style" : "",
					"text" : "saw~ 400",
					"textcolor" : [ 0.239216, 0.254902, 0.278431, 1.0 ]
				}

			}
, 			{
				"box" : 				{
					"id" : "obj-7",
					"maxclass" : "toggle",
					"numinlets" : 1,
					"numoutlets" : 1,
					"outlettype" : [ "int" ],
					"parameter_enable" : 0,
					"patching_rect" : [ 66.0, 623.0, 38.0, 38.0 ],
					"style" : ""
				}

			}
, 			{
				"box" : 				{
					"id" : "obj-5",
					"maxclass" : "gain~",
					"numinlets" : 1,
					"numoutlets" : 2,
					"outlettype" : [ "signal", "int" ],
					"parameter_enable" : 0,
					"patching_rect" : [ 117.0, 532.0, 66.0, 140.0 ],
					"style" : ""
				}

			}
, 			{
				"box" : 				{
					"bgcolor" : [ 0.952941, 0.564706, 0.098039, 1.0 ],
					"color" : [ 0.0, 0.0, 0.0, 1.0 ],
					"fontsize" : 37.194567,
					"id" : "obj-4",
					"maxclass" : "newobj",
					"numinlets" : 2,
					"numoutlets" : 1,
					"outlettype" : [ "signal" ],
					"patching_rect" : [ 24.0, 184.911057, 196.999207, 50.0 ],
					"style" : "",
					"text" : "cycle~ 400",
					"textcolor" : [ 0.239216, 0.254902, 0.278431, 1.0 ]
				}

			}
, 			{
				"box" : 				{
					"bubble" : 1,
					"fontsize" : 8.424257,
					"id" : "obj-3",
					"linecount" : 3,
					"maxclass" : "comment",
					"numinlets" : 1,
					"numoutlets" : 0,
					"patching_rect" : [ 211.0, 718.395569, 166.0, 39.0 ],
					"style" : "",
					"text" : "este objeto se comunica con la tarjeta de audio. Doble clic para acceder al setup"
				}

			}
, 			{
				"box" : 				{
					"fontsize" : 55.573191,
					"id" : "obj-1",
					"maxclass" : "newobj",
					"numinlets" : 2,
					"numoutlets" : 0,
					"patching_rect" : [ 66.0, 696.621582, 133.0, 71.0 ],
					"style" : "",
					"text" : "dac~"
				}

			}
 ],
		"lines" : [ 			{
				"patchline" : 				{
					"destination" : [ "obj-12", 4 ],
					"disabled" : 0,
					"hidden" : 0,
					"midpoints" : [ 647.173767, 257.685791, 269.7, 257.685791 ],
					"source" : [ "obj-10", 0 ]
				}

			}
, 			{
				"patchline" : 				{
					"destination" : [ "obj-12", 5 ],
					"disabled" : 0,
					"hidden" : 0,
					"midpoints" : [ 803.781067, 257.685791, 305.5, 257.685791 ],
					"source" : [ "obj-11", 0 ]
				}

			}
, 			{
				"patchline" : 				{
					"destination" : [ "obj-17", 0 ],
					"disabled" : 0,
					"hidden" : 0,
					"source" : [ "obj-12", 0 ]
				}

			}
, 			{
				"patchline" : 				{
					"destination" : [ "obj-2", 0 ],
					"disabled" : 0,
					"hidden" : 0,
					"midpoints" : [ 785.5, 66.0, 762.0, 66.0, 762.0, 15.0, 886.5, 15.0 ],
					"source" : [ "obj-14", 0 ]
				}

			}
, 			{
				"patchline" : 				{
					"destination" : [ "obj-16", 0 ],
					"disabled" : 0,
					"hidden" : 0,
					"source" : [ "obj-15", 0 ]
				}

			}
, 			{
				"patchline" : 				{
					"destination" : [ "obj-12", 0 ],
					"disabled" : 0,
					"hidden" : 0,
					"midpoints" : [ 38.5, 483.0, 102.0, 483.0, 102.0, 279.0, 126.5, 279.0 ],
					"source" : [ "obj-16", 0 ]
				}

			}
, 			{
				"patchline" : 				{
					"destination" : [ "obj-25", 0 ],
					"disabled" : 0,
					"hidden" : 0,
					"source" : [ "obj-17", 0 ]
				}

			}
, 			{
				"patchline" : 				{
					"destination" : [ "obj-17", 1 ],
					"disabled" : 0,
					"hidden" : 0,
					"midpoints" : [ 355.5, 436.0, 210.0, 436.0, 210.0, 365.0, 153.5, 365.0 ],
					"source" : [ "obj-18", 0 ]
				}

			}
, 			{
				"patchline" : 				{
					"destination" : [ "obj-6", 0 ],
					"disabled" : 0,
					"hidden" : 0,
					"source" : [ "obj-2", 0 ]
				}

			}
, 			{
				"patchline" : 				{
					"destination" : [ "obj-24", 0 ],
					"disabled" : 0,
					"hidden" : 0,
					"source" : [ "obj-21", 0 ]
				}

			}
, 			{
				"patchline" : 				{
					"color" : [ 0.784314, 0.145098, 0.023529, 0.9 ],
					"destination" : [ "obj-36", 0 ],
					"disabled" : 0,
					"hidden" : 0,
					"midpoints" : [ 460.999604, 370.300353, 304.499207, 370.300353 ],
					"source" : [ "obj-21", 1 ]
				}

			}
, 			{
				"patchline" : 				{
					"destination" : [ "obj-10", 0 ],
					"disabled" : 0,
					"hidden" : 0,
					"midpoints" : [ 355.5, 157.54335, 647.173767, 157.54335 ],
					"source" : [ "obj-24", 0 ]
				}

			}
, 			{
				"patchline" : 				{
					"destination" : [ "obj-11", 0 ],
					"disabled" : 0,
					"hidden" : 0,
					"midpoints" : [ 355.5, 147.54335, 803.781067, 147.54335 ],
					"source" : [ "obj-24", 0 ]
				}

			}
, 			{
				"patchline" : 				{
					"destination" : [ "obj-4", 0 ],
					"disabled" : 0,
					"hidden" : 0,
					"midpoints" : [ 355.5, 172.188087, 33.5, 172.188087 ],
					"source" : [ "obj-24", 0 ]
				}

			}
, 			{
				"patchline" : 				{
					"destination" : [ "obj-8", 0 ],
					"disabled" : 0,
					"hidden" : 0,
					"midpoints" : [ 355.5, 157.54335, 260.261673, 157.54335 ],
					"source" : [ "obj-24", 0 ]
				}

			}
, 			{
				"patchline" : 				{
					"destination" : [ "obj-9", 0 ],
					"disabled" : 0,
					"hidden" : 0,
					"midpoints" : [ 355.5, 157.54335, 455.13501, 157.54335 ],
					"source" : [ "obj-24", 0 ]
				}

			}
, 			{
				"patchline" : 				{
					"destination" : [ "obj-5", 0 ],
					"disabled" : 0,
					"hidden" : 0,
					"source" : [ "obj-25", 0 ]
				}

			}
, 			{
				"patchline" : 				{
					"destination" : [ "obj-25", 1 ],
					"disabled" : 0,
					"hidden" : 0,
					"midpoints" : [ 304.499207, 631.0, 221.0, 631.0, 221.0, 464.0, 153.5, 464.0 ],
					"source" : [ "obj-26", 0 ]
				}

			}
, 			{
				"patchline" : 				{
					"destination" : [ "obj-43", 0 ],
					"disabled" : 0,
					"hidden" : 0,
					"source" : [ "obj-36", 0 ]
				}

			}
, 			{
				"patchline" : 				{
					"destination" : [ "obj-46", 0 ],
					"disabled" : 0,
					"hidden" : 0,
					"source" : [ "obj-36", 1 ]
				}

			}
, 			{
				"patchline" : 				{
					"destination" : [ "obj-12", 1 ],
					"disabled" : 0,
					"hidden" : 0,
					"midpoints" : [ 33.5, 259.330528, 162.3, 259.330528 ],
					"source" : [ "obj-4", 0 ]
				}

			}
, 			{
				"patchline" : 				{
					"destination" : [ "obj-26", 0 ],
					"disabled" : 0,
					"hidden" : 0,
					"source" : [ "obj-43", 0 ]
				}

			}
, 			{
				"patchline" : 				{
					"destination" : [ "obj-26", 0 ],
					"disabled" : 0,
					"hidden" : 0,
					"midpoints" : [ 415.499207, 568.0, 304.499207, 568.0 ],
					"source" : [ "obj-46", 0 ]
				}

			}
, 			{
				"patchline" : 				{
					"destination" : [ "obj-1", 1 ],
					"disabled" : 0,
					"hidden" : 0,
					"source" : [ "obj-5", 0 ]
				}

			}
, 			{
				"patchline" : 				{
					"destination" : [ "obj-1", 0 ],
					"disabled" : 0,
					"hidden" : 0,
					"source" : [ "obj-5", 0 ]
				}

			}
, 			{
				"patchline" : 				{
					"destination" : [ "obj-56", 0 ],
					"disabled" : 0,
					"hidden" : 0,
					"source" : [ "obj-51", 0 ]
				}

			}
, 			{
				"patchline" : 				{
					"destination" : [ "obj-58", 0 ],
					"disabled" : 0,
					"hidden" : 0,
					"midpoints" : [ 540.5, 440.0, 502.0, 440.0, 502.0, 286.0, 355.5, 286.0 ],
					"source" : [ "obj-56", 0 ]
				}

			}
, 			{
				"patchline" : 				{
					"destination" : [ "obj-18", 0 ],
					"disabled" : 0,
					"hidden" : 0,
					"source" : [ "obj-58", 0 ]
				}

			}
, 			{
				"patchline" : 				{
					"destination" : [ "obj-10", 1 ],
					"disabled" : 0,
					"hidden" : 0,
					"midpoints" : [ 886.5, 170.266319, 707.473847, 170.266319 ],
					"source" : [ "obj-6", 0 ]
				}

			}
, 			{
				"patchline" : 				{
					"destination" : [ "obj-9", 1 ],
					"disabled" : 0,
					"hidden" : 0,
					"midpoints" : [ 886.5, 162.266319, 532.087899, 162.266319 ],
					"source" : [ "obj-6", 0 ]
				}

			}
, 			{
				"patchline" : 				{
					"destination" : [ "obj-72", 0 ],
					"disabled" : 0,
					"hidden" : 0,
					"source" : [ "obj-65", 1 ]
				}

			}
, 			{
				"patchline" : 				{
					"destination" : [ "obj-1", 0 ],
					"disabled" : 0,
					"hidden" : 0,
					"source" : [ "obj-7", 0 ]
				}

			}
, 			{
				"patchline" : 				{
					"destination" : [ "obj-73", 0 ],
					"disabled" : 0,
					"hidden" : 0,
					"source" : [ "obj-72", 0 ]
				}

			}
, 			{
				"patchline" : 				{
					"destination" : [ "obj-15", 0 ],
					"disabled" : 0,
					"hidden" : 0,
					"source" : [ "obj-73", 0 ]
				}

			}
, 			{
				"patchline" : 				{
					"destination" : [ "obj-12", 2 ],
					"disabled" : 0,
					"hidden" : 0,
					"midpoints" : [ 260.261673, 257.685791, 198.1, 257.685791 ],
					"source" : [ "obj-8", 0 ]
				}

			}
, 			{
				"patchline" : 				{
					"destination" : [ "obj-12", 3 ],
					"disabled" : 0,
					"hidden" : 0,
					"midpoints" : [ 455.13501, 257.685791, 233.9, 257.685791 ],
					"source" : [ "obj-9", 0 ]
				}

			}
 ],
		"dependency_cache" : [  ],
		"autosave" : 0
	}

}
