{
	"patcher" : 	{
		"fileversion" : 1,
		"appversion" : 		{
			"major" : 7,
			"minor" : 1,
			"revision" : 0,
			"architecture" : "x64",
			"modernui" : 1
		}
,
		"rect" : [ 59.0, 81.0, 1238.0, 713.0 ],
		"bglocked" : 0,
		"openinpresentation" : 0,
		"default_fontsize" : 12.0,
		"default_fontface" : 0,
		"default_fontname" : "Arial",
		"gridonopen" : 1,
		"gridsize" : [ 15.0, 15.0 ],
		"gridsnaponopen" : 1,
		"objectsnaponopen" : 1,
		"statusbarvisible" : 2,
		"toolbarvisible" : 1,
		"lefttoolbarpinned" : 0,
		"toptoolbarpinned" : 0,
		"righttoolbarpinned" : 0,
		"bottomtoolbarpinned" : 0,
		"toolbars_unpinned_last_save" : 0,
		"tallnewobj" : 0,
		"boxanimatetime" : 200,
		"enablehscroll" : 1,
		"enablevscroll" : 1,
		"devicewidth" : 0.0,
		"description" : "",
		"digest" : "",
		"tags" : "",
		"style" : "",
		"subpatcher_template" : "",
		"boxes" : [ 			{
				"box" : 				{
					"fontsize" : 27.037405,
					"id" : "obj-24",
					"maxclass" : "newobj",
					"numinlets" : 1,
					"numoutlets" : 1,
					"outlettype" : [ "" ],
					"patching_rect" : [ 605.0, 483.607422, 291.0, 39.0 ],
					"style" : "",
					"text" : "if $i1 == 0 then 0 else 1"
				}

			}
, 			{
				"box" : 				{
					"fontsize" : 45.800545,
					"id" : "obj-23",
					"maxclass" : "newobj",
					"numinlets" : 3,
					"numoutlets" : 2,
					"outlettype" : [ "float", "float" ],
					"patching_rect" : [ 816.0, 202.17778, 390.0, 60.0 ],
					"style" : "",
					"text" : "makenote 127 500"
				}

			}
, 			{
				"box" : 				{
					"fontsize" : 45.800545,
					"id" : "obj-20",
					"maxclass" : "newobj",
					"numinlets" : 5,
					"numoutlets" : 4,
					"outlettype" : [ "signal", "signal", "", "" ],
					"patching_rect" : [ 363.0, 551.177795, 419.0, 60.0 ],
					"style" : "",
					"text" : "adsr~ 400 50 0.5 50"
				}

			}
, 			{
				"box" : 				{
					"fontsize" : 45.800545,
					"id" : "obj-19",
					"maxclass" : "newobj",
					"numinlets" : 2,
					"numoutlets" : 1,
					"outlettype" : [ "signal" ],
					"patching_rect" : [ 231.0, 534.177795, 55.0, 60.0 ],
					"style" : "",
					"text" : "*~"
				}

			}
, 			{
				"box" : 				{
					"fontsize" : 45.800545,
					"id" : "obj-18",
					"maxclass" : "newobj",
					"numinlets" : 2,
					"numoutlets" : 1,
					"outlettype" : [ "signal" ],
					"patching_rect" : [ 363.0, 408.177795, 180.0, 60.0 ],
					"style" : "",
					"text" : "cycle~ 5"
				}

			}
, 			{
				"box" : 				{
					"fontsize" : 45.800545,
					"id" : "obj-17",
					"maxclass" : "newobj",
					"numinlets" : 2,
					"numoutlets" : 1,
					"outlettype" : [ "signal" ],
					"patching_rect" : [ 231.0, 408.177795, 55.0, 60.0 ],
					"style" : "",
					"text" : "*~"
				}

			}
, 			{
				"box" : 				{
					"fontsize" : 45.800545,
					"id" : "obj-16",
					"maxclass" : "newobj",
					"numinlets" : 1,
					"numoutlets" : 1,
					"outlettype" : [ "" ],
					"patching_rect" : [ 816.0, 285.177795, 100.0, 60.0 ],
					"style" : "",
					"text" : "mtof"
				}

			}
, 			{
				"box" : 				{
					"id" : "obj-15",
					"maxclass" : "toggle",
					"numinlets" : 1,
					"numoutlets" : 1,
					"outlettype" : [ "int" ],
					"parameter_enable" : 0,
					"patching_rect" : [ 816.0, 19.0, 27.0, 27.0 ],
					"style" : ""
				}

			}
, 			{
				"box" : 				{
					"fontsize" : 45.800545,
					"id" : "obj-13",
					"maxclass" : "newobj",
					"numinlets" : 2,
					"numoutlets" : 1,
					"outlettype" : [ "bang" ],
					"patching_rect" : [ 816.0, 57.17778, 242.0, 60.0 ],
					"style" : "",
					"text" : "metro 1000"
				}

			}
, 			{
				"box" : 				{
					"fontsize" : 45.800545,
					"id" : "obj-11",
					"maxclass" : "newobj",
					"numinlets" : 1,
					"numoutlets" : 1,
					"outlettype" : [ "" ],
					"patching_rect" : [ 816.0, 129.17778, 413.0, 60.0 ],
					"style" : "",
					"text" : "expr random(60\\,84)"
				}

			}
, 			{
				"box" : 				{
					"id" : "obj-10",
					"maxclass" : "toggle",
					"numinlets" : 1,
					"numoutlets" : 1,
					"outlettype" : [ "int" ],
					"parameter_enable" : 0,
					"patching_rect" : [ 88.0, 448.0, 53.0, 53.0 ],
					"style" : ""
				}

			}
, 			{
				"box" : 				{
					"fontsize" : 45.800545,
					"id" : "obj-8",
					"maxclass" : "newobj",
					"numinlets" : 2,
					"numoutlets" : 0,
					"patching_rect" : [ 199.0, 615.177795, 111.0, 60.0 ],
					"style" : "",
					"text" : "dac~"
				}

			}
, 			{
				"box" : 				{
					"fontsize" : 16.509453,
					"id" : "obj-7",
					"maxclass" : "number",
					"numinlets" : 1,
					"numoutlets" : 2,
					"outlettype" : [ "", "bang" ],
					"parameter_enable" : 0,
					"patching_rect" : [ 119.0, 260.359985, 62.0, 27.0 ],
					"style" : ""
				}

			}
, 			{
				"box" : 				{
					"fontsize" : 45.800545,
					"id" : "obj-5",
					"maxclass" : "newobj",
					"numinlets" : 5,
					"numoutlets" : 1,
					"outlettype" : [ "signal" ],
					"patching_rect" : [ 231.0, 310.177795, 236.0, 60.0 ],
					"style" : "",
					"text" : "selector~ 4"
				}

			}
, 			{
				"box" : 				{
					"fontsize" : 45.800545,
					"id" : "obj-4",
					"maxclass" : "newobj",
					"numinlets" : 3,
					"numoutlets" : 1,
					"outlettype" : [ "signal" ],
					"patching_rect" : [ 634.0, 185.17778, 75.0, 60.0 ],
					"style" : "",
					"text" : "tri~"
				}

			}
, 			{
				"box" : 				{
					"fontsize" : 45.800545,
					"id" : "obj-3",
					"maxclass" : "newobj",
					"numinlets" : 3,
					"numoutlets" : 1,
					"outlettype" : [ "signal" ],
					"patching_rect" : [ 506.0, 185.17778, 114.0, 60.0 ],
					"style" : "",
					"text" : "rect~"
				}

			}
, 			{
				"box" : 				{
					"fontsize" : 45.800545,
					"id" : "obj-2",
					"maxclass" : "newobj",
					"numinlets" : 2,
					"numoutlets" : 1,
					"outlettype" : [ "signal" ],
					"patching_rect" : [ 363.0, 185.17778, 119.0, 60.0 ],
					"style" : "",
					"text" : "saw~"
				}

			}
, 			{
				"box" : 				{
					"fontsize" : 45.800545,
					"id" : "obj-1",
					"maxclass" : "newobj",
					"numinlets" : 2,
					"numoutlets" : 1,
					"outlettype" : [ "signal" ],
					"patching_rect" : [ 211.0, 185.17778, 140.0, 60.0 ],
					"style" : "",
					"text" : "cycle~"
				}

			}
 ],
		"lines" : [ 			{
				"patchline" : 				{
					"destination" : [ "obj-5", 1 ],
					"disabled" : 0,
					"hidden" : 0,
					"midpoints" : [ 220.5, 277.177788, 294.75, 277.177788 ],
					"source" : [ "obj-1", 0 ]
				}

			}
, 			{
				"patchline" : 				{
					"destination" : [ "obj-8", 0 ],
					"disabled" : 0,
					"hidden" : 0,
					"source" : [ "obj-10", 0 ]
				}

			}
, 			{
				"patchline" : 				{
					"destination" : [ "obj-23", 0 ],
					"disabled" : 0,
					"hidden" : 0,
					"source" : [ "obj-11", 0 ]
				}

			}
, 			{
				"patchline" : 				{
					"destination" : [ "obj-11", 0 ],
					"disabled" : 0,
					"hidden" : 0,
					"source" : [ "obj-13", 0 ]
				}

			}
, 			{
				"patchline" : 				{
					"destination" : [ "obj-13", 0 ],
					"disabled" : 0,
					"hidden" : 0,
					"source" : [ "obj-15", 0 ]
				}

			}
, 			{
				"patchline" : 				{
					"color" : [ 0.0, 0.533333, 0.168627, 0.9 ],
					"destination" : [ "obj-1", 0 ],
					"disabled" : 0,
					"hidden" : 0,
					"midpoints" : [ 825.5, 369.0, 720.0, 369.0, 720.0, 139.0, 220.5, 139.0 ],
					"source" : [ "obj-16", 0 ]
				}

			}
, 			{
				"patchline" : 				{
					"color" : [ 0.0, 0.533333, 0.168627, 0.9 ],
					"destination" : [ "obj-2", 0 ],
					"disabled" : 0,
					"hidden" : 0,
					"midpoints" : [ 825.5, 384.0, 754.0, 384.0, 754.0, 151.0, 372.5, 151.0 ],
					"source" : [ "obj-16", 0 ]
				}

			}
, 			{
				"patchline" : 				{
					"color" : [ 0.0, 0.533333, 0.168627, 0.9 ],
					"destination" : [ "obj-3", 0 ],
					"disabled" : 0,
					"hidden" : 0,
					"midpoints" : [ 825.5, 401.0, 743.0, 401.0, 743.0, 164.0, 515.5, 164.0 ],
					"source" : [ "obj-16", 0 ]
				}

			}
, 			{
				"patchline" : 				{
					"color" : [ 0.0, 0.533333, 0.168627, 0.9 ],
					"destination" : [ "obj-4", 0 ],
					"disabled" : 0,
					"hidden" : 0,
					"midpoints" : [ 825.5, 418.0, 732.0, 418.0, 732.0, 171.0, 643.5, 171.0 ],
					"source" : [ "obj-16", 0 ]
				}

			}
, 			{
				"patchline" : 				{
					"destination" : [ "obj-19", 0 ],
					"disabled" : 0,
					"hidden" : 0,
					"source" : [ "obj-17", 0 ]
				}

			}
, 			{
				"patchline" : 				{
					"destination" : [ "obj-17", 1 ],
					"disabled" : 0,
					"hidden" : 0,
					"midpoints" : [ 372.5, 479.0, 318.0, 479.0, 318.0, 392.0, 276.5, 392.0 ],
					"source" : [ "obj-18", 0 ]
				}

			}
, 			{
				"patchline" : 				{
					"destination" : [ "obj-8", 1 ],
					"disabled" : 0,
					"hidden" : 0,
					"source" : [ "obj-19", 0 ]
				}

			}
, 			{
				"patchline" : 				{
					"destination" : [ "obj-8", 0 ],
					"disabled" : 0,
					"hidden" : 0,
					"source" : [ "obj-19", 0 ]
				}

			}
, 			{
				"patchline" : 				{
					"destination" : [ "obj-5", 2 ],
					"disabled" : 0,
					"hidden" : 0,
					"midpoints" : [ 372.5, 277.177788, 349.0, 277.177788 ],
					"source" : [ "obj-2", 0 ]
				}

			}
, 			{
				"patchline" : 				{
					"destination" : [ "obj-19", 1 ],
					"disabled" : 0,
					"hidden" : 0,
					"midpoints" : [ 372.5, 626.0, 320.0, 626.0, 320.0, 494.0, 276.5, 494.0 ],
					"source" : [ "obj-20", 0 ]
				}

			}
, 			{
				"patchline" : 				{
					"destination" : [ "obj-16", 0 ],
					"disabled" : 0,
					"hidden" : 0,
					"source" : [ "obj-23", 0 ]
				}

			}
, 			{
				"patchline" : 				{
					"destination" : [ "obj-24", 0 ],
					"disabled" : 0,
					"hidden" : 0,
					"midpoints" : [ 1196.5, 457.0, 614.5, 457.0 ],
					"source" : [ "obj-23", 1 ]
				}

			}
, 			{
				"patchline" : 				{
					"destination" : [ "obj-20", 0 ],
					"disabled" : 0,
					"hidden" : 0,
					"midpoints" : [ 614.5, 538.0, 372.5, 538.0 ],
					"source" : [ "obj-24", 0 ]
				}

			}
, 			{
				"patchline" : 				{
					"destination" : [ "obj-5", 3 ],
					"disabled" : 0,
					"hidden" : 0,
					"midpoints" : [ 515.5, 277.177788, 403.25, 277.177788 ],
					"source" : [ "obj-3", 0 ]
				}

			}
, 			{
				"patchline" : 				{
					"destination" : [ "obj-5", 4 ],
					"disabled" : 0,
					"hidden" : 0,
					"midpoints" : [ 643.5, 277.177788, 457.5, 277.177788 ],
					"source" : [ "obj-4", 0 ]
				}

			}
, 			{
				"patchline" : 				{
					"destination" : [ "obj-17", 0 ],
					"disabled" : 0,
					"hidden" : 0,
					"source" : [ "obj-5", 0 ]
				}

			}
, 			{
				"patchline" : 				{
					"destination" : [ "obj-5", 0 ],
					"disabled" : 0,
					"hidden" : 0,
					"source" : [ "obj-7", 0 ]
				}

			}
 ],
		"dependency_cache" : [  ],
		"autosave" : 0
	}

}
